<svg width="40" height="40" viewBox="0 0 40 40" fill="none" xmlns="http://www.w3.org/2000/svg">
<path d="M21.6832 4.86664L31.5165 9.2333C34.3499 10.4833 34.3499 12.55 31.5165 13.8L21.6832 18.1666C20.5665 18.6666 18.7332 18.6666 17.6165 18.1666L7.7832 13.8C4.94987 12.55 4.94987 10.4833 7.7832 9.2333L17.6165 4.86664C18.7332 4.36664 20.5665 4.36664 21.6832 4.86664Z" stroke="#FF5A1E" stroke-width="4" stroke-linecap="round" stroke-linejoin="round"/>
<path d="M5 18.3333C5 19.7333 6.05 21.35 7.33333 21.9166L18.65 26.95C19.5167 27.3333 20.5 27.3333 21.35 26.95L32.6667 21.9166C33.95 21.35 35 19.7333 35 18.3333" stroke="#FF5A1E" stroke-width="4" stroke-linecap="round" stroke-linejoin="round"/>
<path d="M5 26.6667C5 28.2167 5.91667 29.6167 7.33333 30.25L18.65 35.2834C19.5167 35.6667 20.5 35.6667 21.35 35.2834L32.6667 30.25C34.0833 29.6167 35 28.2167 35 26.6667" stroke="#FF5A1E" stroke-width="4" stroke-linecap="round" stroke-linejoin="round"/>
</svg>
