<svg width="40" height="36" viewBox="0 0 40 36" fill="none" xmlns="http://www.w3.org/2000/svg">
<path d="M28.5 0.597509H35.5L11.5 35.4523H4.5L28.5 0.597509ZM8.5 17.1286C7.2 17.1286 6.03333 16.9295 5 16.5311C3.96667 16.1328 3.06667 15.5685 2.3 14.8382C1.56667 14.1079 1 13.2448 0.6 12.249C0.2 11.2199 0 10.0747 0 8.81328V8.31535C0 7.08714 0.2 5.9585 0.6 4.92946C1 3.90041 1.56667 3.02075 2.3 2.29046C3.06667 1.56017 3.96667 0.99585 5 0.597509C6.03333 0.19917 7.2 0 8.5 0C9.8 0 10.9667 0.19917 12 0.597509C13.0333 0.99585 13.9167 1.56017 14.65 2.29046C15.4167 3.02075 16 3.90041 16.4 4.92946C16.8 5.9585 17 7.08714 17 8.31535V8.81328C17 10.0747 16.8 11.2199 16.4 12.249C16 13.2448 15.4167 14.1079 14.65 14.8382C13.9167 15.5685 13.0333 16.1328 12 16.5311C10.9667 16.9295 9.8 17.1286 8.5 17.1286ZM8.5 11.9502C9.16667 11.9502 9.7 11.7178 10.1 11.2531C10.5 10.7552 10.7 9.94191 10.7 8.81328V8.31535C10.7 7.18672 10.5 6.39004 10.1 5.92531C9.7 5.42738 9.16667 5.17842 8.5 5.17842C7.83333 5.17842 7.3 5.42738 6.9 5.92531C6.5 6.39004 6.3 7.18672 6.3 8.31535V8.81328C6.3 9.94191 6.5 10.7552 6.9 11.2531C7.3 11.7178 7.83333 11.9502 8.5 11.9502ZM31.5 36C30.2 36 29.0333 35.8008 28 35.4025C26.9667 35.0041 26.0667 34.4398 25.3 33.7095C24.5667 32.9793 24 32.1162 23.6 31.1203C23.2 30.0913 23 28.9461 23 27.6846V27.1867C23 25.9585 23.2 24.8299 23.6 23.8008C24 22.7718 24.5667 21.8921 25.3 21.1618C26.0667 20.4315 26.9667 19.8672 28 19.4689C29.0333 19.0705 30.2 18.8714 31.5 18.8714C32.8 18.8714 33.9667 19.0705 35 19.4689C36.0333 19.8672 36.9167 20.4315 37.65 21.1618C38.4167 21.8921 39 22.7718 39.4 23.8008C39.8 24.8299 40 25.9585 40 27.1867V27.6846C40 28.9461 39.8 30.0913 39.4 31.1203C39 32.1162 38.4167 32.9793 37.65 33.7095C36.9167 34.4398 36.0333 35.0041 35 35.4025C33.9667 35.8008 32.8 36 31.5 36ZM31.5 30.8216C32.1667 30.8216 32.7 30.5892 33.1 30.1245C33.5 29.6266 33.7 28.8133 33.7 27.6846V27.1867C33.7 26.0581 33.5 25.2614 33.1 24.7967C32.7 24.2988 32.1667 24.0498 31.5 24.0498C30.8333 24.0498 30.3 24.2988 29.9 24.7967C29.5 25.2614 29.3 26.0581 29.3 27.1867V27.6846C29.3 28.8133 29.5 29.6266 29.9 30.1245C30.3 30.5892 30.8333 30.8216 31.5 30.8216Z" fill="#FF5A1E"/>
</svg>
