<svg width="133" height="40" viewBox="0 0 133 40" fill="none" xmlns="http://www.w3.org/2000/svg">
<g clip-path="url(#clip0_173_806)">
<path d="M0 5.33333C0 2.38781 2.3536 0 5.25692 0H127.743C130.646 0 133 2.38782 133 5.33333V34.6667C133 37.6122 130.646 40 127.743 40H5.25692C2.3536 40 0 37.6122 0 34.6667V5.33333Z" fill="#333333"/>
<path d="M30.0553 20.8147C30.0418 18.4703 31.0887 16.7035 33.203 15.4006C32.0205 13.6819 30.2315 12.7366 27.8733 12.5544C25.6404 12.3756 23.1975 13.8744 22.303 13.8744C21.3577 13.8744 19.196 12.6163 17.4951 12.6163C13.9849 12.6713 10.2544 15.4556 10.2544 21.1206C10.2544 22.7947 10.5559 24.5238 11.1591 26.3044C11.9655 28.6488 14.8726 34.3928 17.9051 34.3C19.4908 34.2622 20.6123 33.1588 22.6757 33.1588C24.6782 33.1588 25.715 34.3 27.4836 34.3C30.5432 34.2553 33.1725 29.0338 33.9382 26.6825C29.8351 24.7197 30.0553 20.935 30.0553 20.8147ZM26.4943 10.3303C28.2121 8.26095 28.0562 6.3772 28.0054 5.70001C26.4875 5.78939 24.7324 6.74845 23.7328 7.92751C22.6317 9.19251 21.9845 10.7566 22.1234 12.52C23.7633 12.6472 25.2609 11.7913 26.4943 10.3303Z" fill="white"/>
<path d="M48.1962 26.6794H46.4559L45.5027 23.6264H42.1892L41.2812 26.6794H39.5869L42.8697 16.2855H44.8973L48.1962 26.6794ZM45.2153 22.3455L44.3532 19.6314C44.262 19.3541 44.0912 18.7012 43.839 17.6734H43.8084C43.708 18.1154 43.5463 18.7684 43.3241 19.6314L42.4773 22.3455H45.2153Z" fill="white"/>
<path d="M56.6383 22.8399C56.6383 24.1146 56.3004 25.1221 55.6245 25.8617C55.0192 26.5201 54.2674 26.849 53.3701 26.849C52.4015 26.849 51.7057 26.4944 51.282 25.7852H51.2513V29.7333H49.6176V21.652C49.6176 20.8506 49.5969 20.0282 49.5571 19.1847H50.9939L51.085 20.3727H51.1157C51.6605 19.4776 52.4874 19.0308 53.5969 19.0308C54.4644 19.0308 55.1885 19.38 55.7678 20.079C56.3487 20.7788 56.6383 21.6988 56.6383 22.8399ZM54.974 22.9009C54.974 22.1714 54.813 21.57 54.4897 21.0967C54.1364 20.6031 53.6621 20.3563 53.0674 20.3563C52.6644 20.3563 52.2981 20.4937 51.9709 20.7647C51.6429 21.0381 51.4283 21.395 51.328 21.8371C51.2774 22.0433 51.2521 22.212 51.2521 22.3448V23.5944C51.2521 24.1396 51.4161 24.5996 51.7441 24.9753C52.072 25.3509 52.4981 25.5384 53.0222 25.5384C53.6376 25.5384 54.1165 25.2963 54.459 24.8136C54.8023 24.3301 54.974 23.6928 54.974 22.9009Z" fill="white"/>
<path d="M65.0961 22.8399C65.0961 24.1146 64.7582 25.1221 64.0816 25.8617C63.477 26.5201 62.7252 26.849 61.8279 26.849C60.8593 26.849 60.1635 26.4944 59.7405 25.7852H59.7099V29.7333H58.0762V21.652C58.0762 20.8506 58.0555 20.0282 58.0156 19.1847H59.4524L59.5436 20.3727H59.5743C60.1183 19.4776 60.9452 19.0308 62.0555 19.0308C62.9222 19.0308 63.6463 19.38 64.2272 20.079C64.8057 20.7788 65.0961 21.6988 65.0961 22.8399ZM63.4318 22.9009C63.4318 22.1714 63.2701 21.57 62.9467 21.0967C62.5934 20.6031 62.1206 20.3563 61.5252 20.3563C61.1214 20.3563 60.7559 20.4937 60.4279 20.7647C60.0999 21.0381 59.8861 21.395 59.7858 21.8371C59.7359 22.0433 59.7099 22.212 59.7099 22.3448V23.5944C59.7099 24.1396 59.8739 24.5996 60.2003 24.9753C60.5283 25.3502 60.9543 25.5384 61.48 25.5384C62.0954 25.5384 62.5743 25.2963 62.9168 24.8136C63.2601 24.3301 63.4318 23.6928 63.4318 22.9009Z" fill="white"/>
<path d="M74.5523 23.7647C74.5523 24.6489 74.2511 25.3682 73.6465 25.9235C72.9821 26.5304 72.0572 26.8334 70.8687 26.8334C69.7714 26.8334 68.8917 26.6178 68.2258 26.1859L68.6043 24.798C69.3216 25.2401 70.1086 25.4619 70.966 25.4619C71.5814 25.4619 72.0603 25.3198 72.4044 25.037C72.7469 24.7543 72.9178 24.3747 72.9178 23.9014C72.9178 23.4797 72.7768 23.1243 72.494 22.8361C72.2128 22.5479 71.743 22.28 71.0871 22.0324C69.3017 21.3537 68.4097 20.3595 68.4097 19.052C68.4097 18.1976 68.7223 17.497 69.3484 16.9518C69.9722 16.4059 70.8043 16.1333 71.845 16.1333C72.7729 16.1333 73.5438 16.2981 74.1592 16.6269L73.7507 17.9843C73.176 17.6657 72.5262 17.5064 71.799 17.5064C71.2243 17.5064 70.7752 17.6508 70.4534 17.9383C70.1814 18.1952 70.045 18.5084 70.045 18.8794C70.045 19.2902 70.2005 19.63 70.5132 19.8971C70.7852 20.1439 71.2794 20.411 71.9967 20.6992C72.8741 21.0593 73.5185 21.4802 73.9331 21.9629C74.3461 22.444 74.5523 23.0462 74.5523 23.7647Z" fill="white"/>
<path d="M79.9536 20.4345H78.1528V24.0733C78.1528 24.9989 78.47 25.4612 79.106 25.4612C79.398 25.4612 79.6401 25.4354 79.8317 25.3839L79.8769 26.6484C79.5551 26.771 79.1313 26.8327 78.6064 26.8327C77.9612 26.8327 77.457 26.632 77.093 26.2313C76.7306 25.8299 76.5482 25.1566 76.5482 24.2108V20.433H75.4754V19.1833H76.5482V17.811L78.1528 17.3174V19.1833H79.9536V20.4345Z" fill="white"/>
<path d="M88.0786 22.8704C88.0786 24.0224 87.7552 24.9682 87.11 25.7079C86.4334 26.4694 85.5353 26.849 84.4157 26.849C83.3368 26.849 82.4778 26.4842 81.8372 25.7547C81.1966 25.0253 80.8763 24.1044 80.8763 22.9946C80.8763 21.8332 81.2058 20.8819 81.8671 20.1423C82.5268 19.4018 83.4173 19.0316 84.5368 19.0316C85.6157 19.0316 86.4839 19.3964 87.1391 20.1266C87.7659 20.835 88.0786 21.7496 88.0786 22.8704ZM86.3836 22.9243C86.3836 22.2331 86.2387 21.6403 85.9452 21.1459C85.6027 20.5476 85.1131 20.2493 84.4786 20.2493C83.8219 20.2493 83.323 20.5484 82.9805 21.1459C82.687 21.6411 82.5422 22.2432 82.5422 22.9555C82.5422 23.6467 82.687 24.2395 82.9805 24.7332C83.3337 25.3314 83.8272 25.6298 84.464 25.6298C85.0878 25.6298 85.5774 25.3252 85.9307 24.7175C86.2318 24.2138 86.3836 23.6147 86.3836 22.9243Z" fill="white"/>
<path d="M93.3889 20.6491C93.2272 20.6187 93.0547 20.6031 92.8739 20.6031C92.2992 20.6031 91.8547 20.8241 91.5421 21.2669C91.2701 21.6575 91.1337 22.1511 91.1337 22.747V26.6795H89.5007L89.516 21.545C89.516 20.6812 89.4953 19.8947 89.4547 19.1855H90.8777L90.9375 20.6195H90.9827C91.1551 20.1266 91.4271 19.7299 91.7996 19.4323C92.1636 19.1644 92.5567 19.0308 92.9804 19.0308C93.1314 19.0308 93.2678 19.0418 93.3889 19.0613V20.6491Z" fill="white"/>
<path d="M100.695 22.5776C100.695 22.8759 100.676 23.1274 100.635 23.3328H95.7341C95.7532 24.0732 95.99 24.6395 96.4452 25.03C96.8582 25.3791 97.3923 25.5541 98.0482 25.5541C98.7739 25.5541 99.436 25.4361 100.031 25.1995L100.287 26.3554C99.5915 26.6647 98.7701 26.8185 97.8222 26.8185C96.682 26.8185 95.7869 26.4765 95.1356 25.7931C94.4858 25.1097 94.1601 24.1919 94.1601 23.0407C94.1601 21.9106 94.4628 20.9694 95.0689 20.2188C95.7034 19.4175 96.5609 19.0168 97.6398 19.0168C98.6996 19.0168 99.5019 19.4175 100.047 20.2188C100.478 20.8554 100.695 21.6427 100.695 22.5776ZM99.1371 22.1456C99.1479 21.652 99.0414 21.2256 98.8199 20.8655C98.5371 20.4024 98.1027 20.1712 97.518 20.1712C96.9839 20.1712 96.5494 20.3969 96.2176 20.8499C95.9456 21.21 95.7839 21.6419 95.7341 22.1449H99.1371V22.1456Z" fill="white"/>
</g>
<defs>
<clipPath id="clip0_173_806">
<rect width="133" height="40" fill="white"/>
</clipPath>
</defs>
</svg>
