<svg width="133" height="40" viewBox="0 0 133 40" fill="none" xmlns="http://www.w3.org/2000/svg">
<g clip-path="url(#clip0_173_795)">
<path d="M0 5.33333C0 2.38781 2.3536 0 5.25692 0H127.743C130.646 0 133 2.38782 133 5.33333V34.6667C133 37.6122 130.646 40 127.743 40H5.25692C2.3536 40 0 37.6122 0 34.6667V5.33333Z" fill="#333333"/>
<path d="M28.0436 24.2886C31.1927 22.5181 33.5803 21.1692 33.786 21.0644C34.4441 20.7059 35.1241 19.7573 33.786 19.0205C33.354 18.7888 31.028 17.4817 28.0436 15.7963L23.9067 20.0738L28.0434 24.2886H28.0436Z" fill="#FFD900"/>
<path d="M23.9068 20.0739L10.7339 33.6667C11.0429 33.7087 11.392 33.6247 11.8037 33.3931C12.6678 32.909 21.8273 27.7874 28.0439 24.2895L23.9068 20.0739Z" fill="#F43249"/>
<path d="M23.907 20.0739L28.0437 15.8172C28.0437 15.8172 12.7305 7.26095 11.8038 6.75609C11.4551 6.5438 11.0639 6.48104 10.7139 6.5438L23.907 20.0737V20.0739Z" fill="#00EE76"/>
<path d="M23.907 20.0739L10.7136 6.54407C10.1781 6.67075 9.72559 7.15508 9.72559 8.1452V32.065C9.72559 32.9718 10.0758 33.6248 10.7339 33.6876L23.9068 20.0737L23.907 20.0739Z" fill="#00D3FF"/>
<path d="M66.9421 16.0273C64.5752 16.0273 62.6197 17.9025 62.6197 20.4737C62.6197 23.0239 64.5547 24.9201 66.9423 24.9201C69.3296 24.9201 71.2644 23.0449 71.2644 20.4737C71.2644 17.9025 69.3296 16.0273 66.9421 16.0273ZM66.9421 23.1508C65.6451 23.1508 64.5137 22.0335 64.5137 20.4539C64.5137 18.8523 65.646 17.7569 66.9421 17.7569C68.2382 17.7569 69.3704 18.8523 69.3704 20.4539C69.3704 22.0335 68.2382 23.1508 66.9421 23.1508ZM57.5358 16.0273C55.1482 16.0273 53.2132 17.9025 53.2132 20.4737C53.2132 23.0239 55.1482 24.9201 57.5358 24.9201C59.9232 24.9201 61.8582 23.0449 61.8582 20.4737C61.8582 17.9025 59.9232 16.0273 57.5356 16.0273H57.5358ZM57.5358 23.1508C56.2386 23.1508 55.1075 22.0335 55.1075 20.4539C55.1075 18.8523 56.2397 17.7569 57.5358 17.7569C58.8328 17.7569 59.9642 18.8523 59.9642 20.4539C59.9642 22.0335 58.8522 23.1508 57.5358 23.1508ZM46.3593 17.3972V19.2724H50.7224C50.5985 20.326 50.2496 21.1057 49.7346 21.633C49.0968 22.286 48.1088 23.0029 46.3593 23.0029C43.6625 23.0029 41.5844 20.7693 41.5844 18.0084C41.5844 15.2476 43.6636 12.9718 46.3593 12.9718C47.8201 12.9718 48.8706 13.562 49.6526 14.3209L50.9487 12.9928C49.8575 11.9184 48.3966 11.0967 46.3593 11.0967C42.6745 11.0967 39.5869 14.194 39.5869 17.9664C39.5869 21.7391 42.6745 24.8364 46.3593 24.8364C48.3556 24.8364 49.8381 24.1624 51.0316 22.8972C52.2459 21.6539 52.6164 19.9045 52.6164 18.4928C52.6164 18.0504 52.5756 17.6499 52.5132 17.3125L46.3593 17.3972ZM92.0942 18.8511C91.744 17.8605 90.6332 16.0273 88.4094 16.0273C86.1859 16.0273 84.3544 17.8188 84.3544 20.4737C84.3544 22.96 86.1859 24.9201 88.6154 24.9201C90.5912 24.9201 91.7235 23.6769 92.1966 22.96L90.7357 21.9486C90.2412 22.6865 89.5829 23.1706 88.6154 23.1706C87.6479 23.1706 86.9691 22.7283 86.5362 21.8217L92.2786 19.3564L92.0942 18.8511ZM86.2484 20.3479C86.2076 18.6404 87.5456 17.7558 88.4915 17.7558C89.2532 17.7558 89.8707 18.1351 90.0968 18.7044L86.2484 20.3479ZM81.576 24.6255H83.47V11.6018H81.576V24.6255ZM78.4893 17.0179H78.4278C77.9958 16.4906 77.1932 16.0273 76.1633 16.0273C74.002 16.0273 72.0467 17.9874 72.0467 20.4737C72.0467 22.96 74.0225 24.8994 76.1633 24.8994C77.1921 24.8994 77.9949 24.4358 78.4278 23.8875H78.4893V24.5198C78.4893 26.2273 77.6036 27.1327 76.1838 27.1327C75.031 27.1327 74.3103 26.2691 74.0225 25.5521L72.3764 26.2691C72.8492 27.4493 74.1054 28.9032 76.1838 28.9032C78.4064 28.9032 80.2799 27.5543 80.2799 24.2881V16.3009H78.4893V17.0179ZM76.328 23.1508C75.031 23.1508 73.9407 22.0335 73.9407 20.4748C73.9407 18.9162 75.0319 17.7777 76.328 17.7777C77.6048 17.7777 78.6336 18.9162 78.6336 20.4748C78.6327 22.0125 77.6036 23.1508 76.328 23.1508ZM100.924 11.6021H96.3961V24.6255H98.2901V19.6938H100.924C103.024 19.6938 105.082 18.134 105.082 15.6479C105.082 13.1617 103.024 11.6018 100.924 11.6018V11.6021ZM100.986 17.8827H98.3095V13.4141H100.986C102.385 13.4141 103.208 14.6153 103.208 15.6477C103.189 16.6593 102.386 17.8827 100.986 17.8827ZM112.636 16.0063C111.278 16.0063 109.857 16.6175 109.281 18.0084L110.949 18.7254C111.32 18.0084 111.978 17.7768 112.678 17.7768C113.666 17.7768 114.654 18.3878 114.674 19.4621V19.589C114.324 19.3784 113.605 19.0828 112.699 19.0828C110.888 19.0828 109.055 20.1154 109.055 22.0125C109.055 23.7618 110.537 24.8784 112.184 24.8784C113.46 24.8784 114.16 24.2881 114.592 23.5931H114.653V24.6047H116.484V19.6098C116.464 17.3132 114.797 16.006 112.636 16.006V16.0063ZM112.41 23.1298C111.792 23.1298 110.927 22.8132 110.927 22.0344C110.927 21.0229 111.997 20.6435 112.924 20.6435C113.747 20.6435 114.138 20.8332 114.653 21.0859C114.509 22.2871 113.5 23.1298 112.41 23.1298ZM123.092 16.3021L120.931 21.9285H120.869L118.626 16.3019H116.589L119.964 24.1831L118.05 28.5878H120.025L125.191 16.3019H123.092L123.092 16.3021ZM106.132 24.6255H108.026V11.6018H106.132V24.6255Z" fill="white"/>
</g>
<defs>
<clipPath id="clip0_173_795">
<rect width="133" height="40" fill="white"/>
</clipPath>
</defs>
</svg>
