<svg width="90" height="90" viewBox="0 0 90 90" fill="none" xmlns="http://www.w3.org/2000/svg">
<path d="M28.7998 3.6H32.3998V0C30.4116 7.2e-06 28.7998 1.61175 28.7998 3.6Z" fill="white"/>
<path d="M34.1999 3.6C33.7804 3.6 32.3999 3.6 32.3999 3.6C32.3999 3.6 32.3999 2.37451 32.3999 1.8C32.3999 1.35127 32.3999 0 32.3999 0C32.3999 0 33.6546 0 34.1999 0C35.194 0 35.9999 0.805889 35.9999 1.8C35.9999 2.79406 35.194 3.6 34.1999 3.6Z" fill="white"/>
<path d="M48.5998 0C49.594 0 50.3998 0.805896 50.3998 1.8C50.3998 2.79415 49.594 3.6 48.5998 3.6C47.6057 3.6 46.7998 2.79415 46.7998 1.8C46.7998 0.805896 47.6057 0 48.5998 0Z" fill="white"/>
<path d="M61.2001 1.8C61.2001 2.21952 61.2001 3.6 61.2001 3.6C61.2001 3.6 59.9747 3.6 59.4001 3.59991C58.9514 3.6 57.6001 3.59991 57.6001 3.59991C57.6001 3.59991 57.6001 2.34538 57.6001 1.79996C57.6001 0.805903 58.406 0 59.4001 0C60.3942 0 61.2001 0.805896 61.2001 1.8Z" fill="white"/>
<path d="M28.7998 5.39998C28.7998 4.98042 28.7998 3.59998 28.7998 3.59998C28.7998 3.59998 30.0253 3.59998 30.5998 3.59998C31.0485 3.59998 32.3998 3.59998 32.3998 3.59998C32.3998 3.59998 32.3998 4.85465 32.3998 5.39998C32.3998 6.39404 31.5939 7.19998 30.5998 7.19998C29.6057 7.19998 28.7998 6.39404 28.7998 5.39998Z" fill="white"/>
<path d="M36 7.19998H39.6V3.59998C37.6118 3.59998 36 5.21172 36 7.19998Z" fill="white"/>
<path d="M43.2001 3.59998H39.6001V7.19998H43.2001V3.59998Z" fill="white"/>
<path d="M43.2002 3.59998V7.19998H46.8002C46.8002 5.21172 45.1884 3.59998 43.2002 3.59998Z" fill="white"/>
<path d="M57.6001 5.39998C57.6001 4.98042 57.6001 3.59998 57.6001 3.59998C57.6001 3.59998 58.8255 3.59998 59.4001 3.59998C59.8488 3.59998 61.2001 3.59998 61.2001 3.59998C61.2001 3.59998 61.2001 4.85465 61.2001 5.39998C61.2001 6.39404 60.3942 7.19998 59.4001 7.19998C58.406 7.19998 57.6001 6.39404 57.6001 5.39998Z" fill="white"/>
<path d="M39.6 10.8V7.20001H36C36 9.18823 37.6117 10.8 39.6 10.8Z" fill="white"/>
<path d="M43.2001 7.20001H39.6001V10.8H43.2001V7.20001Z" fill="white"/>
<path d="M46.8002 7.20001H43.2002V10.8H46.8002V7.20001Z" fill="white"/>
<path d="M50.3998 7.20001H46.7998V10.8H50.3998V7.20001Z" fill="white"/>
<path d="M50.3999 7.20001V10.8H53.9999C53.9999 8.81175 52.3881 7.20001 50.3999 7.20001Z" fill="white"/>
<path d="M30.5998 10.8C31.0193 10.8 32.3998 10.8 32.3998 10.8C32.3998 10.8 32.3998 12.0253 32.3998 12.6C32.3998 13.0486 32.3998 14.4 32.3998 14.4C32.3998 14.4 31.1454 14.4 30.5998 14.4C29.6053 14.4 28.7998 13.5937 28.7998 12.6C28.7998 11.6061 29.6053 10.8 30.5998 10.8Z" fill="white"/>
<path d="M32.3999 10.8V14.4H35.9999C35.9999 12.4117 34.3881 10.8 32.3999 10.8Z" fill="white"/>
<path d="M46.8002 10.8H43.2002V14.4H46.8002V10.8Z" fill="white"/>
<path d="M50.3998 10.8H46.7998V14.4H50.3998V10.8Z" fill="white"/>
<path d="M53.9999 10.8H50.3999V14.4H53.9999V10.8Z" fill="white"/>
<path d="M57.6 10.8H54V14.4H57.6V10.8Z" fill="white"/>
<path d="M57.6001 10.8V14.4H61.2001C61.2001 12.4117 59.5883 10.8 57.6001 10.8Z" fill="white"/>
<path d="M35.9999 18V14.4H32.3999C32.3999 16.3882 34.0116 18 35.9999 18Z" fill="white"/>
<path d="M39.6 14.4H36V18H39.6V14.4Z" fill="white"/>
<path d="M43.2001 14.4H39.6001V18H43.2001V14.4Z" fill="white"/>
<path d="M46.8002 14.4H43.2002V18H46.8002V14.4Z" fill="white"/>
<path d="M50.3998 14.4H46.7998V18H50.3998V14.4Z" fill="white"/>
<path d="M53.9999 14.4H50.3999V18H53.9999V14.4Z" fill="white"/>
<path d="M57.6 14.4H54V18H57.6V14.4Z" fill="white"/>
<path d="M61.2001 14.4H57.6001V18H61.2001V14.4Z" fill="white"/>
<path d="M39.6 18H36V21.6H39.6V18Z" fill="white"/>
<path d="M43.2001 18H39.6001V21.6C41.5883 21.6 43.2001 19.9882 43.2001 18Z" fill="white"/>
<path d="M53.9999 18H50.3999V21.6H53.9999V18Z" fill="white"/>
<path d="M61.2001 18H57.6001V21.6H61.2001V18Z" fill="white"/>
<path d="M32.3998 23.4C32.3998 23.8195 32.3998 25.2 32.3998 25.2C32.3998 25.2 31.1744 25.2 30.5998 25.1999C30.1511 25.2 28.7998 25.1999 28.7998 25.1999C28.7998 25.1999 28.7998 23.9454 28.7998 23.3999C28.7998 22.4059 29.6057 21.6 30.5998 21.6C31.5939 21.6 32.3998 22.4059 32.3998 23.4Z" fill="white"/>
<path d="M39.6 21.6H36V25.2H39.6V21.6Z" fill="white"/>
<path d="M46.8002 23.4C46.8002 23.8195 46.8002 25.2 46.8002 25.2C46.8002 25.2 45.5748 25.2 45.0002 25.1999C44.5515 25.2 43.2002 25.1999 43.2002 25.1999C43.2002 25.1999 43.2002 23.9454 43.2002 23.3999C43.2002 22.4059 44.0061 21.6 45.0002 21.6C45.9943 21.6 46.8002 22.4059 46.8002 23.4Z" fill="white"/>
<path d="M50.3999 23.4C50.3999 22.9804 50.3999 21.6 50.3999 21.6C50.3999 21.6 51.6253 21.6 52.1999 21.6C52.6486 21.6 53.9999 21.6 53.9999 21.6C53.9999 21.6 53.9999 22.8547 53.9999 23.4C53.9999 24.394 53.194 25.2 52.1999 25.2C51.2058 25.2 50.3999 24.394 50.3999 23.4Z" fill="white"/>
<path d="M57.6001 23.4C57.6001 22.9804 57.6001 21.6 57.6001 21.6C57.6001 21.6 58.8255 21.6 59.4001 21.6C59.8488 21.6 61.2001 21.6 61.2001 21.6C61.2001 21.6 61.2001 22.8547 61.2001 23.4C61.2001 24.394 60.3942 25.2 59.4001 25.2C58.406 25.2 57.6001 24.394 57.6001 23.4Z" fill="white"/>
<path d="M32.3998 28.8V25.2H28.7998C28.7998 27.1882 30.4115 28.8 32.3998 28.8Z" fill="white"/>
<path d="M35.9999 25.2H32.3999V28.8H35.9999V25.2Z" fill="white"/>
<path d="M39.6 25.2H36V28.8C37.9882 28.8 39.6 27.1882 39.6 25.2Z" fill="white"/>
<path d="M43.2002 27C43.2002 26.5805 43.2002 25.2 43.2002 25.2C43.2002 25.2 44.4256 25.2 45.0002 25.2C45.4489 25.2 46.8002 25.2 46.8002 25.2C46.8002 25.2 46.8002 26.4547 46.8002 27C46.8002 27.9941 45.9943 28.8 45.0002 28.8C44.0061 28.8 43.2002 27.9941 43.2002 27Z" fill="white"/>
<path d="M3.6 30.6C3.6 31.0195 3.6 32.4 3.6 32.4C3.6 32.4 2.3746 32.4 1.8 32.3999C1.35127 32.4 0 32.3999 0 32.3999C0 32.3999 0 31.1454 0 30.5999C4.32e-05 29.6059 0.805889 28.8 1.79996 28.8C2.79406 28.8 3.6 29.6059 3.6 30.6Z" fill="white"/>
<path d="M9.0002 28.8C9.41974 28.8 10.8002 28.8 10.8002 28.8C10.8002 28.8 10.8002 30.0253 10.8002 30.6C10.8002 31.0486 10.8002 32.4 10.8002 32.4C10.8002 32.4 9.54582 32.4 9.0002 32.4C8.00574 32.4 7.2002 31.5937 7.2002 30.6C7.2002 29.6061 8.00574 28.8 9.0002 28.8Z" fill="white"/>
<path d="M12.5998 32.4C12.1803 32.4 10.7998 32.4 10.7998 32.4C10.7998 32.4 10.7998 31.1745 10.7998 30.6C10.7998 30.1513 10.7998 28.8 10.7998 28.8C10.7998 28.8 12.0545 28.8 12.5998 28.8C13.5939 28.8 14.3998 29.6059 14.3998 30.6C14.3998 31.594 13.5939 32.4 12.5998 32.4Z" fill="white"/>
<path d="M18 32.4H21.6V28.8C19.6118 28.8 18 30.4117 18 32.4Z" fill="white"/>
<path d="M25.2001 28.8H21.6001V32.4H25.2001V28.8Z" fill="white"/>
<path d="M25.2002 28.8V32.4H28.8002C28.8002 30.4117 27.1884 28.8 25.2002 28.8Z" fill="white"/>
<path d="M35.9999 28.8H32.3999V32.4H35.9999V28.8Z" fill="white"/>
<path d="M41.4001 28.8C42.3943 28.8 43.2001 29.6059 43.2001 30.6C43.2001 31.5941 42.3943 32.4 41.4001 32.4C40.406 32.4 39.6001 31.5941 39.6001 30.6C39.6001 29.6059 40.406 28.8 41.4001 28.8Z" fill="white"/>
<path d="M52.1999 28.8C52.6194 28.8 53.9999 28.8 53.9999 28.8C53.9999 28.8 53.9999 30.0253 53.9999 30.6C53.9999 31.0486 53.9999 32.4 53.9999 32.4C53.9999 32.4 52.7455 32.4 52.1999 32.4C51.2054 32.4 50.3999 31.5937 50.3999 30.6C50.3999 29.6061 51.2054 28.8 52.1999 28.8Z" fill="white"/>
<path d="M57.6 28.8H54V32.4H57.6V28.8Z" fill="white"/>
<path d="M57.6001 28.8V32.4H61.2001C61.2001 30.4117 59.5883 28.8 57.6001 28.8Z" fill="white"/>
<path d="M66.5998 28.8C67.594 28.8 68.3998 29.6059 68.3998 30.6C68.3998 31.5941 67.594 32.4 66.5998 32.4C65.6057 32.4 64.7998 31.5941 64.7998 30.6C64.7998 29.6059 65.6057 28.8 66.5998 28.8Z" fill="white"/>
<path d="M77.4001 28.8C78.3943 28.8 79.2001 29.6059 79.2001 30.6C79.2001 31.5941 78.3943 32.4 77.4001 32.4C76.406 32.4 75.6001 31.5941 75.6001 30.6C75.6001 29.6059 76.406 28.8 77.4001 28.8Z" fill="white"/>
<path d="M82.7998 32.4H86.3998V28.8C84.4116 28.8 82.7998 30.4117 82.7998 32.4Z" fill="white"/>
<path d="M88.1999 32.4C87.7804 32.4 86.3999 32.4 86.3999 32.4C86.3999 32.4 86.3999 31.1745 86.3999 30.6C86.3999 30.1513 86.3999 28.8 86.3999 28.8C86.3999 28.8 87.6546 28.8 88.1999 28.8C89.194 28.8 89.9999 29.6059 89.9999 30.6C89.9999 31.594 89.194 32.4 88.1999 32.4Z" fill="white"/>
<path d="M0 34.2C0 33.7805 0 32.4 0 32.4C0 32.4 1.22545 32.4 1.8 32.4C2.24873 32.4 3.6 32.4 3.6 32.4C3.6 32.4 3.6 33.6547 3.6 34.2C3.6 35.1941 2.79406 36 1.8 36C0.805889 36 0 35.1941 0 34.2Z" fill="white"/>
<path d="M21.6 32.4H18V36H21.6V32.4Z" fill="white"/>
<path d="M28.8002 32.4H25.2002V36H28.8002V32.4Z" fill="white"/>
<path d="M32.3998 32.4H28.7998V36H32.3998V32.4Z" fill="white"/>
<path d="M35.9999 32.4H32.3999V36C34.3881 36 35.9999 34.3882 35.9999 32.4Z" fill="white"/>
<path d="M61.2001 32.4H57.6001V36H61.2001V32.4Z" fill="white"/>
<path d="M71.9999 34.2C71.9999 34.6195 71.9999 36 71.9999 36C71.9999 36 70.7745 36 70.1999 35.9999C69.7512 36 68.3999 35.9999 68.3999 35.9999C68.3999 35.9999 68.3999 34.7454 68.3999 34.2C68.3999 33.2059 69.2058 32.4 70.1999 32.4C71.194 32.4 71.9999 33.2059 71.9999 34.2Z" fill="white"/>
<path d="M82.7998 34.2C82.7998 33.7805 82.7998 32.4 82.7998 32.4C82.7998 32.4 84.0253 32.4 84.5998 32.4C85.0485 32.4 86.3998 32.4 86.3998 32.4C86.3998 32.4 86.3998 33.6547 86.3998 34.2C86.3998 35.1941 85.5939 36 84.5998 36C83.6057 36 82.7998 35.1941 82.7998 34.2Z" fill="white"/>
<path d="M21.6 39.6V36H18C18 37.9882 19.6117 39.6 21.6 39.6Z" fill="white"/>
<path d="M25.2001 36H21.6001V39.6H25.2001V36Z" fill="white"/>
<path d="M28.8002 36H25.2002V39.6H28.8002V36Z" fill="white"/>
<path d="M37.8 36C38.7942 36 39.6 36.8059 39.6 37.8C39.6 38.7942 38.7942 39.6 37.8 39.6C36.8059 39.6 36 38.7942 36 37.8C36 36.8059 36.8059 36 37.8 36Z" fill="white"/>
<path d="M45.0002 36C45.4197 36 46.8002 36 46.8002 36C46.8002 36 46.8002 37.2253 46.8002 37.8C46.8002 38.2486 46.8002 39.6 46.8002 39.6C46.8002 39.6 45.5458 39.6 45.0002 39.6C44.0057 39.6 43.2002 38.7938 43.2002 37.8C43.2002 36.8061 44.0057 36 45.0002 36Z" fill="white"/>
<path d="M50.3998 36H46.7998V39.6H50.3998V36Z" fill="white"/>
<path d="M50.3999 36V39.6H53.9999C53.9999 37.6117 52.3881 36 50.3999 36Z" fill="white"/>
<path d="M57.6001 37.8C57.6001 37.3804 57.6001 36 57.6001 36C57.6001 36 58.8255 36 59.4001 36C59.8488 36 61.2001 36 61.2001 36C61.2001 36 61.2001 37.2547 61.2001 37.8C61.2001 38.7941 60.3942 39.6 59.4001 39.6C58.406 39.6 57.6001 38.7941 57.6001 37.8Z" fill="white"/>
<path d="M66.5998 36C67.0193 36 68.3998 36 68.3998 36C68.3998 36 68.3998 37.2253 68.3998 37.8C68.3998 38.2486 68.3998 39.6 68.3998 39.6C68.3998 39.6 67.1454 39.6 66.5998 39.6C65.6053 39.6 64.7998 38.7938 64.7998 37.8C64.7998 36.8061 65.6053 36 66.5998 36Z" fill="white"/>
<path d="M71.9999 36H68.3999V39.6H71.9999V36Z" fill="white"/>
<path d="M9.0002 39.6C9.41974 39.6 10.8002 39.6 10.8002 39.6C10.8002 39.6 10.8002 40.8253 10.8002 41.4C10.8002 41.8486 10.8002 43.2 10.8002 43.2C10.8002 43.2 9.54582 43.2 9.0002 43.2C8.00574 43.2 7.2002 42.3937 7.2002 41.4C7.2002 40.4061 8.00574 39.6 9.0002 39.6Z" fill="white"/>
<path d="M14.3998 39.6H10.7998V43.2H14.3998V39.6Z" fill="white"/>
<path d="M16.1999 43.2C15.7804 43.2 14.3999 43.2 14.3999 43.2C14.3999 43.2 14.3999 41.9745 14.3999 41.4C14.3999 40.9512 14.3999 39.6 14.3999 39.6C14.3999 39.6 15.6546 39.6 16.1999 39.6C17.194 39.6 17.9999 40.4059 17.9999 41.4C17.9999 42.394 17.194 43.2 16.1999 43.2Z" fill="white"/>
<path d="M28.8002 39.6H25.2002V43.2H28.8002V39.6Z" fill="white"/>
<path d="M50.3998 39.6H46.7998V43.2H50.3998V39.6Z" fill="white"/>
<path d="M53.9999 39.6H50.3999V43.2H53.9999V39.6Z" fill="white"/>
<path d="M55.8 43.2C55.3804 43.2 54 43.2 54 43.2C54 43.2 54 41.9745 54 41.4C54 40.9512 54 39.6 54 39.6C54 39.6 55.2547 39.6 55.8 39.6C56.7941 39.6 57.6 40.4059 57.6 41.4C57.6 42.394 56.7941 43.2 55.8 43.2Z" fill="white"/>
<path d="M68.3999 41.4C68.3999 40.9804 68.3999 39.6 68.3999 39.6C68.3999 39.6 69.6253 39.6 70.1999 39.6C70.6486 39.6 71.9999 39.6 71.9999 39.6C71.9999 39.6 71.9999 40.8547 71.9999 41.4C71.9999 42.394 71.194 43.2 70.1999 43.2C69.2058 43.2 68.3999 42.394 68.3999 41.4Z" fill="white"/>
<path d="M77.4001 39.6C77.8196 39.6 79.2001 39.6 79.2001 39.6C79.2001 39.6 79.2001 40.8253 79.2001 41.4C79.2001 41.8486 79.2001 43.2 79.2001 43.2C79.2001 43.2 77.9457 43.2 77.4001 43.2C76.4056 43.2 75.6001 42.3937 75.6001 41.4C75.6001 40.4061 76.4056 39.6 77.4001 39.6Z" fill="white"/>
<path d="M79.2002 39.6V43.2H82.8002C82.8002 41.2117 81.1884 39.6 79.2002 39.6Z" fill="white"/>
<path d="M1.8 43.2C2.21954 43.2 3.6 43.2 3.6 43.2C3.6 43.2 3.6 44.4253 3.6 45C3.6 45.4486 3.6 46.8 3.6 46.8C3.6 46.8 2.34562 46.8 1.8 46.8C0.805543 46.8 0 45.9938 0 45C0 44.0061 0.805543 43.2 1.8 43.2Z" fill="white"/>
<path d="M5.4001 46.8C4.98055 46.8 3.6001 46.8 3.6001 46.8C3.6001 46.8 3.6001 45.5745 3.6001 45C3.6001 44.5513 3.6001 43.2 3.6001 43.2C3.6001 43.2 4.85478 43.2 5.4001 43.2C6.39416 43.2 7.2001 44.0059 7.2001 45C7.2001 45.9941 6.39416 46.8 5.4001 46.8Z" fill="white"/>
<path d="M19.8 43.2C20.2195 43.2 21.6 43.2 21.6 43.2C21.6 43.2 21.6 44.4253 21.6 45C21.6 45.4486 21.6 46.8 21.6 46.8C21.6 46.8 20.3456 46.8 19.8 46.8C18.8055 46.8 18 45.9938 18 45C18 44.0061 18.8055 43.2 19.8 43.2Z" fill="white"/>
<path d="M25.2001 43.2H21.6001V46.8H25.2001V43.2Z" fill="white"/>
<path d="M28.8002 43.2H25.2002V46.8H28.8002V43.2Z" fill="white"/>
<path d="M34.1999 43.2C35.1941 43.2 35.9999 44.0059 35.9999 45C35.9999 45.9942 35.1941 46.8 34.1999 46.8C33.2058 46.8 32.3999 45.9942 32.3999 45C32.3999 44.0059 33.2058 43.2 34.1999 43.2Z" fill="white"/>
<path d="M46.7998 45C46.7998 44.5805 46.7998 43.2 46.7998 43.2C46.7998 43.2 48.0253 43.2 48.5998 43.2C49.0485 43.2 50.3998 43.2 50.3998 43.2C50.3998 43.2 50.3998 44.4547 50.3998 45C50.3998 45.9941 49.5939 46.8 48.5998 46.8C47.6057 46.8 46.7998 45.9941 46.7998 45Z" fill="white"/>
<path d="M61.2002 46.8H64.8002V43.2C62.812 43.2 61.2002 44.8118 61.2002 46.8Z" fill="white"/>
<path d="M64.7998 43.2V46.8H68.3998C68.3998 44.8118 66.788 43.2 64.7998 43.2Z" fill="white"/>
<path d="M75.6 45C75.6 45.4195 75.6 46.8 75.6 46.8C75.6 46.8 74.3746 46.8 73.8 46.7999C73.3513 46.8 72 46.7999 72 46.7999C72 46.7999 72 45.5454 72 45C72 44.0059 72.8059 43.2 73.8 43.2C74.7941 43.2 75.6 44.0059 75.6 45Z" fill="white"/>
<path d="M82.8002 46.8V43.2H79.2002C79.2002 45.1882 80.8119 46.8 82.8002 46.8Z" fill="white"/>
<path d="M86.3998 43.2H82.7998V46.8H86.3998V43.2Z" fill="white"/>
<path d="M86.3999 43.2V46.8H89.9999C89.9999 44.8118 88.3881 43.2 86.3999 43.2Z" fill="white"/>
<path d="M14.3998 48.6C14.3998 49.0195 14.3998 50.4 14.3998 50.4C14.3998 50.4 13.1744 50.4 12.5998 50.3999C12.1511 50.4 10.7998 50.3999 10.7998 50.3999C10.7998 50.3999 10.7998 49.1454 10.7998 48.5999C10.7998 47.6059 11.6057 46.8 12.5998 46.8C13.5939 46.8 14.3998 47.6059 14.3998 48.6Z" fill="white"/>
<path d="M25.2002 48.6C25.2002 48.1804 25.2002 46.8 25.2002 46.8C25.2002 46.8 26.4256 46.8 27.0002 46.8C27.4489 46.8 28.8002 46.8 28.8002 46.8C28.8002 46.8 28.8002 48.0547 28.8002 48.6C28.8002 49.594 27.9943 50.4 27.0002 50.4C26.0061 50.4 25.2002 49.594 25.2002 48.6Z" fill="white"/>
<path d="M37.8 46.8C38.2195 46.8 39.6 46.8 39.6 46.8C39.6 46.8 39.6 48.0253 39.6 48.6C39.6 49.0486 39.6 50.4 39.6 50.4C39.6 50.4 38.3456 50.4 37.8 50.4C36.8055 50.4 36 49.5937 36 48.6C36 47.6061 36.8055 46.8 37.8 46.8Z" fill="white"/>
<path d="M41.4001 50.4C40.9805 50.4 39.6001 50.4 39.6001 50.4C39.6001 50.4 39.6001 49.1745 39.6001 48.6C39.6001 48.1513 39.6001 46.8 39.6001 46.8C39.6001 46.8 40.8548 46.8 41.4001 46.8C42.3942 46.8 43.2001 47.6059 43.2001 48.6C43.2001 49.594 42.3942 50.4 41.4001 50.4Z" fill="white"/>
<path d="M55.8 46.8C56.7942 46.8 57.6 47.6059 57.6 48.6C57.6 49.5941 56.7942 50.4 55.8 50.4C54.8059 50.4 54 49.5941 54 48.6C54 47.6059 54.8059 46.8 55.8 46.8Z" fill="white"/>
<path d="M64.8002 50.4V46.8H61.2002C61.2002 48.7882 62.8119 50.4 64.8002 50.4Z" fill="white"/>
<path d="M68.3998 46.8H64.7998V50.4H68.3998V46.8Z" fill="white"/>
<path d="M71.9999 46.8H68.3999V50.4H71.9999V46.8Z" fill="white"/>
<path d="M75.6 46.8H72V50.4H75.6V46.8Z" fill="white"/>
<path d="M86.3999 48.6C86.3999 48.1804 86.3999 46.8 86.3999 46.8C86.3999 46.8 87.6253 46.8 88.1999 46.8C88.6486 46.8 89.9999 46.8 89.9999 46.8C89.9999 46.8 89.9999 48.0547 89.9999 48.6C89.9999 49.594 89.194 50.4 88.1999 50.4C87.2058 50.4 86.3999 49.594 86.3999 48.6Z" fill="white"/>
<path d="M5.4001 50.4C5.81964 50.4 7.2001 50.4 7.2001 50.4C7.2001 50.4 7.2001 51.6253 7.2001 52.2C7.2001 52.6486 7.2001 54 7.2001 54C7.2001 54 5.94572 54 5.4001 54C4.40564 54 3.6001 53.1938 3.6001 52.2C3.6001 51.2062 4.40564 50.4 5.4001 50.4Z" fill="white"/>
<path d="M10.8002 50.4H7.2002V54H10.8002V50.4Z" fill="white"/>
<path d="M14.3998 50.4H10.7998V54H14.3998V50.4Z" fill="white"/>
<path d="M14.3999 50.4V54H17.9999C17.9999 52.0118 16.3881 50.4 14.3999 50.4Z" fill="white"/>
<path d="M23.4001 50.4C24.3943 50.4 25.2001 51.2059 25.2001 52.2C25.2001 53.1942 24.3943 54 23.4001 54C22.406 54 21.6001 53.1942 21.6001 52.2C21.6001 51.2059 22.406 50.4 23.4001 50.4Z" fill="white"/>
<path d="M30.5998 50.4C31.594 50.4 32.3998 51.2059 32.3998 52.2C32.3998 53.1942 31.594 54 30.5998 54C29.6057 54 28.7998 53.1942 28.7998 52.2C28.7998 51.2059 29.6057 50.4 30.5998 50.4Z" fill="white"/>
<path d="M46.8002 52.2C46.8002 52.6195 46.8002 54 46.8002 54C46.8002 54 45.5748 54 45.0002 53.9999C44.5515 54 43.2002 53.9999 43.2002 53.9999C43.2002 53.9999 43.2002 52.7454 43.2002 52.2C43.2002 51.2059 44.0061 50.4 45.0002 50.4C45.9943 50.4 46.8002 51.2059 46.8002 52.2Z" fill="white"/>
<path d="M75.6 50.4H72V54H75.6V50.4Z" fill="white"/>
<path d="M81.0002 50.4C81.4197 50.4 82.8002 50.4 82.8002 50.4C82.8002 50.4 82.8002 51.6253 82.8002 52.2C82.8002 52.6486 82.8002 54 82.8002 54C82.8002 54 81.5458 54 81.0002 54C80.0057 54 79.2002 53.1938 79.2002 52.2C79.2002 51.2062 80.0057 50.4 81.0002 50.4Z" fill="white"/>
<path d="M84.5998 54C84.1803 54 82.7998 54 82.7998 54C82.7998 54 82.7998 52.7745 82.7998 52.2C82.7998 51.7513 82.7998 50.4 82.7998 50.4C82.7998 50.4 84.0545 50.4 84.5998 50.4C85.5939 50.4 86.3998 51.2059 86.3998 52.2C86.3998 53.1941 85.5939 54 84.5998 54Z" fill="white"/>
<path d="M1.8 54C2.79415 54 3.6 54.8059 3.6 55.8C3.6 56.7942 2.79415 57.6 1.8 57.6C0.805896 57.6 0 56.7942 0 55.8C0 54.8059 0.805896 54 1.8 54Z" fill="white"/>
<path d="M14.3998 57.6V54H10.7998C10.7998 55.9882 12.4115 57.6 14.3998 57.6Z" fill="white"/>
<path d="M17.9999 54H14.3999V57.6H17.9999V54Z" fill="white"/>
<path d="M19.8 57.6C19.3804 57.6 18 57.6 18 57.6C18 57.6 18 56.3745 18 55.8C18 55.3513 18 54 18 54C18 54 19.2547 54 19.8 54C20.7941 54 21.6 54.8059 21.6 55.8C21.6 56.7941 20.7941 57.6 19.8 57.6Z" fill="white"/>
<path d="M28.8002 55.8C28.8002 56.2195 28.8002 57.6 28.8002 57.6C28.8002 57.6 27.5748 57.6 27.0002 57.5999C26.5515 57.6 25.2002 57.5999 25.2002 57.5999C25.2002 57.5999 25.2002 56.3454 25.2002 55.8C25.2002 54.8059 26.0061 54 27.0002 54C27.9943 54 28.8002 54.8059 28.8002 55.8Z" fill="white"/>
<path d="M34.1999 54C34.6194 54 35.9999 54 35.9999 54C35.9999 54 35.9999 55.2253 35.9999 55.8C35.9999 56.2486 35.9999 57.6 35.9999 57.6C35.9999 57.6 34.7455 57.6 34.1999 57.6C33.2054 57.6 32.3999 56.7938 32.3999 55.8C32.3999 54.8061 33.2054 54 34.1999 54Z" fill="white"/>
<path d="M37.8 57.6C37.3804 57.6 36 57.6 36 57.6C36 57.6 36 56.3745 36 55.8C36 55.3513 36 54 36 54C36 54 37.2547 54 37.8 54C38.7941 54 39.6 54.8059 39.6 55.8C39.6 56.7941 38.7941 57.6 37.8 57.6Z" fill="white"/>
<path d="M43.2002 55.8C43.2002 55.3804 43.2002 54 43.2002 54C43.2002 54 44.4256 54 45.0002 54C45.4489 54 46.8002 54 46.8002 54C46.8002 54 46.8002 55.2547 46.8002 55.8C46.8002 56.7941 45.9943 57.6 45.0002 57.6C44.0061 57.6 43.2002 56.7941 43.2002 55.8Z" fill="white"/>
<path d="M57.6001 57.6H61.2001V54C59.2119 54 57.6001 55.6117 57.6001 57.6Z" fill="white"/>
<path d="M61.2002 54V57.6H64.8002C64.8002 55.6117 63.1884 54 61.2002 54Z" fill="white"/>
<path d="M68.3999 57.6H71.9999V54C70.0117 54 68.3999 55.6117 68.3999 57.6Z" fill="white"/>
<path d="M75.6 54H72V57.6H75.6V54Z" fill="white"/>
<path d="M89.9999 55.8C89.9999 56.2195 89.9999 57.6 89.9999 57.6C89.9999 57.6 88.7745 57.6 88.1999 57.5999C87.7512 57.6 86.3999 57.5999 86.3999 57.5999C86.3999 57.5999 86.3999 56.3454 86.3999 55.8C86.3999 54.8059 87.2058 54 88.1999 54C89.194 54 89.9999 54.8059 89.9999 55.8Z" fill="white"/>
<path d="M9.0002 57.6C9.99435 57.6 10.8002 58.4059 10.8002 59.4C10.8002 60.3941 9.99435 61.2 9.0002 61.2C8.00609 61.2 7.2002 60.3941 7.2002 59.4C7.2002 58.4059 8.00609 57.6 9.0002 57.6Z" fill="white"/>
<path d="M23.4001 57.6C23.8196 57.6 25.2001 57.6 25.2001 57.6C25.2001 57.6 25.2001 58.8253 25.2001 59.4C25.2001 59.8486 25.2001 61.2 25.2001 61.2C25.2001 61.2 23.9457 61.2 23.4001 61.2C22.4056 61.2 21.6001 60.3937 21.6001 59.4C21.6001 58.4061 22.4056 57.6 23.4001 57.6Z" fill="white"/>
<path d="M28.8002 57.6H25.2002V61.2H28.8002V57.6Z" fill="white"/>
<path d="M28.7998 57.6V61.2H32.3998C32.3998 59.2117 30.788 57.6 28.7998 57.6Z" fill="white"/>
<path d="M41.4001 57.6C42.3943 57.6 43.2001 58.4059 43.2001 59.4C43.2001 60.3941 42.3943 61.2 41.4001 61.2C40.406 61.2 39.6001 60.3941 39.6001 59.4C39.6001 58.4059 40.406 57.6 41.4001 57.6Z" fill="white"/>
<path d="M50.3998 59.4C50.3998 59.8195 50.3998 61.2 50.3998 61.2C50.3998 61.2 49.1744 61.2 48.5998 61.1999C48.1511 61.2 46.7998 61.1999 46.7998 61.1999C46.7998 61.1999 46.7998 59.9454 46.7998 59.3999C46.7998 58.4059 47.6057 57.6 48.5998 57.6C49.5939 57.6 50.3998 58.4059 50.3998 59.4Z" fill="white"/>
<path d="M55.8 57.6C56.2195 57.6 57.6 57.6 57.6 57.6C57.6 57.6 57.6 58.8253 57.6 59.4C57.6 59.8486 57.6 61.2 57.6 61.2C57.6 61.2 56.3456 61.2 55.8 61.2C54.8055 61.2 54 60.3937 54 59.4C54 58.4061 54.8055 57.6 55.8 57.6Z" fill="white"/>
<path d="M61.2001 57.6H57.6001V61.2H61.2001V57.6Z" fill="white"/>
<path d="M64.8002 57.6H61.2002V61.2H64.8002V57.6Z" fill="white"/>
<path d="M68.3998 57.6H64.7998V61.2H68.3998V57.6Z" fill="white"/>
<path d="M71.9999 57.6H68.3999V61.2H71.9999V57.6Z" fill="white"/>
<path d="M75.6 57.6H72V61.2H75.6V57.6Z" fill="white"/>
<path d="M79.2001 57.6H75.6001V61.2H79.2001V57.6Z" fill="white"/>
<path d="M82.8002 57.6H79.2002V61.2H82.8002V57.6Z" fill="white"/>
<path d="M86.3998 57.6H82.7998V61.2H86.3998V57.6Z" fill="white"/>
<path d="M89.9999 57.6H86.3999V61.2H89.9999V57.6Z" fill="white"/>
<path d="M32.3998 61.2H28.7998V64.8H32.3998V61.2Z" fill="white"/>
<path d="M39.6 63C39.6 63.4195 39.6 64.8 39.6 64.8C39.6 64.8 38.3746 64.8 37.8 64.7999C37.3513 64.8 36 64.7999 36 64.7999C36 64.7999 36 63.5454 36 63C36 62.0059 36.8059 61.2 37.8 61.2C38.7941 61.2 39.6 62.0059 39.6 63Z" fill="white"/>
<path d="M43.2002 64.8H46.8002V61.2C44.812 61.2 43.2002 62.8118 43.2002 64.8Z" fill="white"/>
<path d="M50.3998 61.2H46.7998V64.8H50.3998V61.2Z" fill="white"/>
<path d="M61.2001 61.2H57.6001V64.8H61.2001V61.2Z" fill="white"/>
<path d="M75.6 61.2H72V64.8H75.6V61.2Z" fill="white"/>
<path d="M82.8002 61.2H79.2002V64.8H82.8002V61.2Z" fill="white"/>
<path d="M89.9999 61.2H86.3999V64.8H89.9999V61.2Z" fill="white"/>
<path d="M32.3998 64.8H28.7998V68.4H32.3998V64.8Z" fill="white"/>
<path d="M35.9999 64.8H32.3999V68.4H35.9999V64.8Z" fill="white"/>
<path d="M39.6 64.8H36V68.4H39.6V64.8Z" fill="white"/>
<path d="M43.2001 64.8H39.6001V68.4H43.2001V64.8Z" fill="white"/>
<path d="M46.8002 64.8H43.2002V68.4H46.8002V64.8Z" fill="white"/>
<path d="M50.3998 64.8H46.7998V68.4C48.788 68.4 50.3998 66.7882 50.3998 64.8Z" fill="white"/>
<path d="M61.2001 64.8H57.6001V68.4H61.2001V64.8Z" fill="white"/>
<path d="M66.5998 64.8C67.594 64.8 68.3998 65.6059 68.3998 66.6C68.3998 67.5941 67.594 68.4 66.5998 68.4C65.6057 68.4 64.7998 67.5941 64.7998 66.6C64.7998 65.6059 65.6057 64.8 66.5998 64.8Z" fill="white"/>
<path d="M75.6 64.8H72V68.4H75.6V64.8Z" fill="white"/>
<path d="M82.8002 68.4V64.8H79.2002C79.2002 66.7882 80.8119 68.4 82.8002 68.4Z" fill="white"/>
<path d="M86.3998 64.8H82.7998V68.4H86.3998V64.8Z" fill="white"/>
<path d="M89.9999 64.8H86.3999V68.4H89.9999V64.8Z" fill="white"/>
<path d="M32.3998 72V68.4H28.7998C28.7998 70.3882 30.4115 72 32.3998 72Z" fill="white"/>
<path d="M35.9999 68.4H32.3999V72H35.9999V68.4Z" fill="white"/>
<path d="M39.6 68.4H36V72C37.9882 72 39.6 70.3882 39.6 68.4Z" fill="white"/>
<path d="M46.8002 68.4H43.2002V72H46.8002V68.4Z" fill="white"/>
<path d="M55.8 68.4C56.2195 68.4 57.6 68.4 57.6 68.4C57.6 68.4 57.6 69.6253 57.6 70.2C57.6 70.6486 57.6 72 57.6 72C57.6 72 56.3456 72 55.8 72C54.8055 72 54 71.1938 54 70.2C54 69.2062 54.8055 68.4 55.8 68.4Z" fill="white"/>
<path d="M61.2001 68.4H57.6001V72H61.2001V68.4Z" fill="white"/>
<path d="M75.6 68.4H72V72H75.6V68.4Z" fill="white"/>
<path d="M86.3998 68.4H82.7998V72H86.3998V68.4Z" fill="white"/>
<path d="M89.9999 68.4H86.3999V72C88.3881 72 89.9999 70.3882 89.9999 68.4Z" fill="white"/>
<path d="M41.4001 72C41.8196 72 43.2001 72 43.2001 72C43.2001 72 43.2001 73.2253 43.2001 73.8C43.2001 74.2486 43.2001 75.6 43.2001 75.6C43.2001 75.6 41.9457 75.6 41.4001 75.6C40.4056 75.6 39.6001 74.7938 39.6001 73.8C39.6001 72.8061 40.4056 72 41.4001 72Z" fill="white"/>
<path d="M46.8002 72H43.2002V75.6H46.8002V72Z" fill="white"/>
<path d="M46.7998 72V75.6H50.3998C50.3998 73.6117 48.788 72 46.7998 72Z" fill="white"/>
<path d="M61.2001 75.6V72H57.6001C57.6001 73.9882 59.2118 75.6 61.2001 75.6Z" fill="white"/>
<path d="M64.8002 72H61.2002V75.6H64.8002V72Z" fill="white"/>
<path d="M68.3998 72H64.7998V75.6H68.3998V72Z" fill="white"/>
<path d="M71.9999 72H68.3999V75.6H71.9999V72Z" fill="white"/>
<path d="M75.6 72H72V75.6H75.6V72Z" fill="white"/>
<path d="M75.6001 72V75.6H79.2001C79.2001 73.6117 77.5883 72 75.6001 72Z" fill="white"/>
<path d="M86.3998 72H82.7998V75.6H86.3998V72Z" fill="white"/>
<path d="M32.3998 77.4C32.3998 77.8195 32.3998 79.2 32.3998 79.2C32.3998 79.2 31.1744 79.2 30.5998 79.1999C30.1511 79.2 28.7998 79.1999 28.7998 79.1999C28.7998 79.1999 28.7998 77.9454 28.7998 77.3999C28.7998 76.4059 29.6057 75.6 30.5998 75.6C31.5939 75.6 32.3998 76.4059 32.3998 77.4Z" fill="white"/>
<path d="M46.8002 75.6H43.2002V79.2H46.8002V75.6Z" fill="white"/>
<path d="M50.3998 75.6H46.7998V79.2H50.3998V75.6Z" fill="white"/>
<path d="M57.6 77.4C57.6 77.8195 57.6 79.2 57.6 79.2C57.6 79.2 56.3746 79.2 55.8 79.1999C55.3513 79.2 54 79.1999 54 79.1999C54 79.1999 54 77.9454 54 77.3999C54 76.4059 54.8059 75.6 55.8 75.6C56.7941 75.6 57.6 76.4059 57.6 77.4Z" fill="white"/>
<path d="M68.3998 75.6H64.7998V79.2H68.3998V75.6Z" fill="white"/>
<path d="M75.6 75.6H72V79.2H75.6V75.6Z" fill="white"/>
<path d="M79.2001 75.6H75.6001V79.2H79.2001V75.6Z" fill="white"/>
<path d="M82.8002 75.6H79.2002V79.2H82.8002V75.6Z" fill="white"/>
<path d="M86.3998 75.6H82.7998V79.2H86.3998V75.6Z" fill="white"/>
<path d="M88.1999 79.2C87.7804 79.2 86.3999 79.2 86.3999 79.2C86.3999 79.2 86.3999 77.9745 86.3999 77.4C86.3999 76.9512 86.3999 75.6 86.3999 75.6C86.3999 75.6 87.6546 75.6 88.1999 75.6C89.194 75.6 89.9999 76.4059 89.9999 77.4C89.9999 78.394 89.194 79.2 88.1999 79.2Z" fill="white"/>
<path d="M28.7998 81C28.7998 80.5805 28.7998 79.2 28.7998 79.2C28.7998 79.2 30.0253 79.2 30.5998 79.2C31.0485 79.2 32.3998 79.2 32.3998 79.2C32.3998 79.2 32.3998 80.4547 32.3998 81C32.3998 81.9941 31.5939 82.8 30.5998 82.8C29.6057 82.8 28.7998 81.9941 28.7998 81Z" fill="white"/>
<path d="M37.8 79.2C38.2195 79.2 39.6 79.2 39.6 79.2C39.6 79.2 39.6 80.4253 39.6 81C39.6 81.4486 39.6 82.8 39.6 82.8C39.6 82.8 38.3456 82.8 37.8 82.8C36.8055 82.8 36 81.9938 36 81C36 80.0061 36.8055 79.2 37.8 79.2Z" fill="white"/>
<path d="M43.2001 79.2H39.6001V82.8H43.2001V79.2Z" fill="white"/>
<path d="M46.8002 79.2H43.2002V82.8H46.8002V79.2Z" fill="white"/>
<path d="M50.3998 79.2H46.7998V82.8C48.788 82.8 50.3998 81.1882 50.3998 79.2Z" fill="white"/>
<path d="M57.6 79.2H54V82.8H57.6V79.2Z" fill="white"/>
<path d="M61.2002 82.8H64.8002V79.2C62.812 79.2 61.2002 80.8118 61.2002 82.8Z" fill="white"/>
<path d="M68.3998 79.2H64.7998V82.8H68.3998V79.2Z" fill="white"/>
<path d="M75.6 79.2H72V82.8H75.6V79.2Z" fill="white"/>
<path d="M82.8002 79.2H79.2002V82.8H82.8002V79.2Z" fill="white"/>
<path d="M86.3998 79.2H82.7998V82.8C84.788 82.8 86.3998 81.1882 86.3998 79.2Z" fill="white"/>
<path d="M35.9999 84.6C35.9999 85.0195 35.9999 86.4 35.9999 86.4C35.9999 86.4 34.7745 86.4 34.1999 86.3999C33.7512 86.4 32.3999 86.3999 32.3999 86.3999C32.3999 86.3999 32.3999 85.1454 32.3999 84.5999C32.3999 83.6059 33.2058 82.8 34.1999 82.8C35.194 82.8 35.9999 83.6059 35.9999 84.6Z" fill="white"/>
<path d="M54 84.6C54 84.1804 54 82.8 54 82.8C54 82.8 55.2254 82.8 55.8 82.8C56.2487 82.8 57.6 82.8 57.6 82.8C57.6 82.8 57.6 84.0547 57.6 84.6C57.6 85.594 56.7941 86.4 55.8 86.4C54.8059 86.4 54 85.594 54 84.6Z" fill="white"/>
<path d="M64.8002 86.4V82.8H61.2002C61.2002 84.7882 62.8119 86.4 64.8002 86.4Z" fill="white"/>
<path d="M68.3998 82.8H64.7998V86.4C66.788 86.4 68.3998 84.7882 68.3998 82.8Z" fill="white"/>
<path d="M75.6 82.8H72V86.4H75.6V82.8Z" fill="white"/>
<path d="M82.8002 82.8H79.2002V86.4H82.8002V82.8Z" fill="white"/>
<path d="M30.5998 86.4C31.0193 86.4 32.3998 86.4 32.3998 86.4C32.3998 86.4 32.3998 87.6253 32.3998 88.2C32.3998 88.6486 32.3998 90 32.3998 90C32.3998 90 31.1454 90 30.5998 90C29.6053 90 28.7998 89.1938 28.7998 88.2C28.7998 87.2062 29.6053 86.4 30.5998 86.4Z" fill="white"/>
<path d="M35.9999 86.4H32.3999V90C34.3881 90 35.9999 88.3882 35.9999 86.4Z" fill="white"/>
<path d="M45.0002 86.4C45.9943 86.4 46.8002 87.2059 46.8002 88.2C46.8002 89.1942 45.9943 90 45.0002 90C44.0061 90 43.2002 89.1942 43.2002 88.2C43.2002 87.2059 44.0061 86.4 45.0002 86.4Z" fill="white"/>
<path d="M52.1999 86.4C53.1941 86.4 53.9999 87.2059 53.9999 88.2C53.9999 89.1942 53.1941 90 52.1999 90C51.2058 90 50.3999 89.1942 50.3999 88.2C50.3999 87.2059 51.2058 86.4 52.1999 86.4Z" fill="white"/>
<path d="M70.1999 86.4C70.6194 86.4 71.9999 86.4 71.9999 86.4C71.9999 86.4 71.9999 87.6253 71.9999 88.2C71.9999 88.6486 71.9999 90 71.9999 90C71.9999 90 70.7455 90 70.1999 90C69.2054 90 68.3999 89.1938 68.3999 88.2C68.3999 87.2062 69.2054 86.4 70.1999 86.4Z" fill="white"/>
<path d="M75.6 86.4H72V90H75.6V86.4Z" fill="white"/>
<path d="M79.2001 86.4H75.6001V90H79.2001V86.4Z" fill="white"/>
<path d="M82.8002 86.4H79.2002V90H82.8002V86.4Z" fill="white"/>
<path d="M86.3998 86.4H82.7998V90H86.3998V86.4Z" fill="white"/>
<path d="M88.1999 90C87.7804 90 86.3999 90 86.3999 90C86.3999 90 86.3999 88.7745 86.3999 88.2C86.3999 87.7513 86.3999 86.4 86.3999 86.4C86.3999 86.4 87.6546 86.4 88.1999 86.4C89.194 86.4 89.9999 87.2059 89.9999 88.2C89.9999 89.1941 89.194 90 88.1999 90Z" fill="white"/>
<path d="M16.5965 0.00201416H8.60353C4.70812 0.00201416 1.40792 2.57569 0.3528 6.09336C0.243684 6.45725 0.158508 6.83121 0.099288 7.2135C0.03402 7.63535 0 8.06727 0 8.50701V16.6897C0 21.3817 3.86064 25.1972 8.60353 25.1972L12.6 25.198L16.5965 25.197C21.3391 25.197 25.2 21.3814 25.2 16.6895V8.50701C25.2 3.81729 21.3394 0.00201416 16.5965 0.00201416ZM21.42 16.6897C21.42 19.2964 19.2563 21.4172 16.5955 21.4172L12.6 21.418L8.60454 21.417C5.94367 21.417 3.78 19.2961 3.78 16.6897V8.50701C3.78 7.6928 3.99118 6.92622 4.36288 6.2564C4.72072 5.61204 5.22698 5.05789 5.83657 4.63831C6.62029 4.09878 7.57462 3.78201 8.60328 3.78201H16.5965C19.2563 3.78201 21.42 5.90159 21.42 8.50701V16.6897Z" fill="white"/>
<path d="M81.3963 0.00201416H73.4033C69.5079 0.00201416 66.2077 2.57569 65.1526 6.09336C65.0435 6.45725 64.9583 6.83121 64.8991 7.2135C64.8338 7.63535 64.7998 8.06727 64.7998 8.50701V16.6897C64.7998 21.3817 68.6604 25.1972 73.4033 25.1972L77.3998 25.198L81.3963 25.197C86.1389 25.197 89.9998 21.3814 89.9998 16.6895V8.50701C89.9998 3.81729 86.1392 0.00201416 81.3963 0.00201416ZM86.2198 16.6897C86.2198 19.2964 84.0561 21.4172 81.3953 21.4172L77.3998 21.418L73.4043 21.417C70.7435 21.417 68.5798 19.2961 68.5798 16.6897V8.50701C68.5798 7.6928 68.791 6.92622 69.1627 6.2564C69.5205 5.61204 70.0268 5.05789 70.6364 4.63831C71.4201 4.09878 72.3744 3.78201 73.4031 3.78201H81.3963C84.0561 3.78201 86.2198 5.90159 86.2198 8.50701V16.6897Z" fill="white"/>
<path d="M16.5965 64.802H8.60353C4.70812 64.802 1.40792 67.3757 0.3528 70.8933C0.243684 71.2572 0.158508 71.6312 0.099288 72.0135C0.03402 72.4353 0 72.8673 0 73.307V81.4897C0 86.1817 3.86064 89.9972 8.60353 89.9972L12.6 89.998L16.5965 89.997C21.3391 89.997 25.2 86.1814 25.2 81.4894V73.307C25.2 68.6173 21.3394 64.802 16.5965 64.802ZM21.42 81.4897C21.42 84.0964 19.2563 86.2172 16.5955 86.2172L12.6 86.218L8.60454 86.217C5.94367 86.217 3.78 84.0961 3.78 81.4897V73.307C3.78 72.4928 3.99118 71.7262 4.36288 71.0564C4.72072 70.412 5.22698 69.8579 5.83657 69.4383C6.62029 68.8988 7.57462 68.582 8.60328 68.582H16.5965C19.2563 68.582 21.42 70.7016 21.42 73.307V81.4897Z" fill="white"/>
<path d="M12.4943 17.7882C15.4182 17.7882 17.7884 15.418 17.7884 12.4941C17.7884 9.57027 15.4182 7.20001 12.4943 7.20001C9.57045 7.20001 7.2002 9.57027 7.2002 12.4941C7.2002 15.418 9.57045 17.7882 12.4943 17.7882Z" fill="white"/>
<path d="M77.2941 17.7882C80.218 17.7882 82.5882 15.418 82.5882 12.4941C82.5882 9.57027 80.218 7.20001 77.2941 7.20001C74.3703 7.20001 72 9.57027 72 12.4941C72 15.418 74.3703 17.7882 77.2941 17.7882Z" fill="white"/>
<path d="M12.4943 82.5882C15.4182 82.5882 17.7884 80.218 17.7884 77.2941C17.7884 74.3703 15.4182 72 12.4943 72C9.57045 72 7.2002 74.3703 7.2002 77.2941C7.2002 80.218 9.57045 82.5882 12.4943 82.5882Z" fill="white"/>
</svg>
