<svg width="48" height="48" viewBox="0 0 48 48" fill="none" xmlns="http://www.w3.org/2000/svg">
<path d="M38.0409 20.1773L25.8546 32.4944C25.5897 32.7621 25.3027 32.9513 24.9936 33.062C24.6846 33.1727 24.3534 33.2289 24.0002 33.2307C23.647 33.2307 23.3158 33.1745 23.0067 33.062C22.6977 32.9496 22.4107 32.7603 22.1458 32.4944L9.95948 20.1773C9.4738 19.6864 9.23096 19.0616 9.23096 18.3029C9.23096 17.5443 9.4738 16.9195 9.95948 16.4286C10.4452 15.9377 11.0633 15.6923 11.8139 15.6923C12.5645 15.6923 13.1827 15.9377 13.6683 16.4286L24.0002 26.8713L34.332 16.4286C34.8177 15.9377 35.4359 15.6923 36.1865 15.6923C36.9371 15.6923 37.5552 15.9377 38.0409 16.4286C38.5266 16.9195 38.7694 17.5443 38.7694 18.3029C38.7694 19.0616 38.5266 19.6864 38.0409 20.1773Z" fill="white"/>
</svg>
