<svg width="100" height="20" viewBox="0 0 100 20" fill="none" xmlns="http://www.w3.org/2000/svg">
<path d="M9.99994 14.3916L13.4583 16.4833C14.0916 16.8666 14.8666 16.3 14.6999 15.5833L13.7833 11.65L16.8416 8.99997C17.3999 8.51663 17.0999 7.59997 16.3666 7.54163L12.3416 7.19997L10.7666 3.4833C10.4833 2.8083 9.51661 2.8083 9.23327 3.4833L7.65827 7.19163L3.63327 7.5333C2.89994 7.59163 2.59994 8.5083 3.15827 8.99163L6.21661 11.6416L5.29994 15.575C5.13327 16.2916 5.90827 16.8583 6.5416 16.475L9.99994 14.3916Z" fill="#FFA600"/>
<path d="M29.9999 14.3916L33.4583 16.4833C34.0916 16.8666 34.8666 16.3 34.6999 15.5833L33.7833 11.65L36.8416 8.99997C37.3999 8.51663 37.0999 7.59997 36.3666 7.54163L32.3416 7.19997L30.7666 3.4833C30.4833 2.8083 29.5166 2.8083 29.2333 3.4833L27.6583 7.19163L23.6333 7.5333C22.8999 7.59163 22.5999 8.5083 23.1583 8.99163L26.2166 11.6416L25.2999 15.575C25.1333 16.2916 25.9083 16.8583 26.5416 16.475L29.9999 14.3916Z" fill="#FFA600"/>
<path d="M49.9999 14.3916L53.4583 16.4833C54.0916 16.8666 54.8666 16.3 54.6999 15.5833L53.7833 11.65L56.8416 8.99997C57.3999 8.51663 57.0999 7.59997 56.3666 7.54163L52.3416 7.19997L50.7666 3.4833C50.4833 2.8083 49.5166 2.8083 49.2333 3.4833L47.6583 7.19163L43.6333 7.5333C42.8999 7.59163 42.5999 8.5083 43.1583 8.99163L46.2166 11.6416L45.2999 15.575C45.1333 16.2916 45.9083 16.8583 46.5416 16.475L49.9999 14.3916Z" fill="#FFA600"/>
<path d="M69.9999 14.3916L73.4583 16.4833C74.0916 16.8666 74.8666 16.3 74.6999 15.5833L73.7833 11.65L76.8416 8.99997C77.3999 8.51663 77.0999 7.59997 76.3666 7.54163L72.3416 7.19997L70.7666 3.4833C70.4833 2.8083 69.5166 2.8083 69.2333 3.4833L67.6583 7.19163L63.6333 7.5333C62.8999 7.59163 62.5999 8.5083 63.1583 8.99163L66.2166 11.6416L65.2999 15.575C65.1333 16.2916 65.9083 16.8583 66.5416 16.475L69.9999 14.3916Z" fill="#FFA600"/>
<path d="M89.9999 14.3916L93.4583 16.4833C94.0916 16.8666 94.8666 16.3 94.6999 15.5833L93.7833 11.65L96.8416 8.99997C97.3999 8.51663 97.0999 7.59997 96.3666 7.54163L92.3416 7.19997L90.7666 3.4833C90.4833 2.8083 89.5166 2.8083 89.2333 3.4833L87.6583 7.19163L83.6333 7.5333C82.8999 7.59163 82.5999 8.5083 83.1583 8.99163L86.2166 11.6416L85.2999 15.575C85.1333 16.2916 85.9083 16.8583 86.5416 16.475L89.9999 14.3916Z" fill="#FFA600"/>
</svg>
