<svg width="48" height="48" viewBox="0 0 48 48" fill="none" xmlns="http://www.w3.org/2000/svg">
<rect width="48" height="48" rx="24" fill="#A48461"/>
<path d="M30.3196 39.0317L27.9311 37.7919L28.0306 37.6886C28.4287 37.2754 28.8268 36.8621 29.2249 36.4489V36.3456H29.3244C29.9215 36.4489 30.5187 36.4489 31.0163 36.4489H31.2153V36.5522L30.3196 39.0317ZM28.2297 37.7919L30.1206 38.7217L30.8172 36.7588C30.3196 36.7588 29.822 36.7588 29.2249 36.6555C29.0258 37.0688 28.6278 37.3787 28.2297 37.7919ZM17.7799 39.0317L16.9837 36.4489H17.0833C17.6804 36.4489 18.2775 36.4489 18.7751 36.3456H18.8746V36.4489C19.1732 36.9655 19.5713 37.3787 20.0689 37.6886L20.1684 37.7919L20.0689 37.8953L17.7799 39.0317ZM17.1828 36.6555L17.8794 38.6184L19.7703 37.6886C19.3723 37.3787 19.0737 36.9654 18.7751 36.5522C18.2775 36.6555 17.6804 36.7588 17.1828 36.6555ZM36.5895 31.0767V30.8701C36.689 30.3535 36.5895 29.7337 36.49 29.2171V29.1138H36.5895C37.0871 28.8039 37.4852 28.3906 37.8833 27.9774L37.9828 27.8741L38.0823 27.9774L39.2766 30.2502L36.5895 31.0767ZM36.689 29.2171C36.7885 29.7337 36.7885 30.2502 36.7885 30.7668L38.779 30.1469L37.7837 28.2873C37.5847 28.5972 37.1866 28.9072 36.689 29.2171ZM11.4105 31.0767H11.311L8.92249 30.2502L10.1167 27.8741L10.2163 27.9774C10.6144 28.3906 11.0124 28.8039 11.51 29.1138H11.6096V29.2171C11.51 29.7337 11.51 30.3535 11.51 30.8701L11.4105 31.0767ZM9.22105 30.1469L11.2115 30.7668C11.2115 30.2502 11.2115 29.7337 11.311 29.2171C10.9129 28.9072 10.5148 28.5972 10.1167 28.184L9.22105 30.1469ZM37.8833 20.229L37.7837 20.1257C37.3857 19.7125 36.9876 19.2992 36.49 18.9893H36.3904V18.886C36.49 18.3694 36.49 17.7496 36.49 17.233V17.1297H36.5895L38.978 17.9562L37.8833 20.229ZM36.689 18.7827C37.0871 19.0926 37.4852 19.4025 37.8833 19.8158L38.8785 17.9562L36.888 17.3363C36.888 17.8529 36.7885 18.3694 36.689 18.7827ZM10.1167 20.229L10.0172 20.1257L8.82297 17.8529L11.4105 17.0264V17.233C11.311 17.8529 11.4105 18.3694 11.51 18.886V18.9893H11.4105C10.9129 19.2992 10.5148 19.7125 10.1167 20.1257V20.229ZM9.22105 17.9562L10.2163 19.8158C10.5148 19.4025 10.9129 19.0926 11.4105 18.7827C11.311 18.2661 11.311 17.7496 11.311 17.233L9.22105 17.9562ZM18.8746 11.7575C18.2775 11.6542 17.6804 11.6542 17.0833 11.6542H16.8842V11.5509L17.6804 9.17472L20.1684 10.3111L20.0689 10.4145C19.5713 10.7244 19.1732 11.1376 18.8746 11.7575ZM17.5809 11.3443C17.979 11.3443 18.377 11.3443 18.7751 11.4476C19.0737 11.0343 19.3723 10.6211 19.7703 10.3111L17.8794 9.38134L17.1828 11.3443C17.3818 11.3443 17.4813 11.3443 17.5809 11.3443ZM29.2249 11.7575C28.8268 11.2409 28.4287 10.8277 28.0306 10.4145L27.9311 10.3111L28.0306 10.2078L30.3196 9.07141L31.1158 11.6542H31.0163C30.4191 11.5509 29.822 11.5509 29.2249 11.7575ZM28.2297 10.3111C28.6278 10.6211 28.9263 11.0343 29.2249 11.4476C29.822 11.3443 30.3196 11.3443 30.8172 11.3443L30.1206 9.38134L28.2297 10.3111Z" fill="white"/>
<path d="M24.0496 39.3415C21.9596 39.3415 19.9692 38.3084 18.7749 36.6554C18.3769 36.7588 17.9788 36.7588 17.5807 36.7588C15.8888 36.7588 14.2965 36.1389 13.1022 34.8992C11.6094 33.4528 10.9127 31.3866 11.3108 29.3204C9.61897 28.1839 8.52423 26.221 8.52423 24.1548C8.52423 22.0886 9.51945 20.1256 11.3108 18.9892C10.9127 16.923 11.6094 14.8568 13.1022 13.4104C14.2965 12.0674 15.8888 11.3442 17.5807 11.3442C17.9788 11.3442 18.3769 11.3442 18.7749 11.4475C19.9692 9.69121 21.9596 8.76141 24.0496 8.76141C26.1395 8.76141 28.13 9.79453 29.3242 11.4475C29.6228 11.3442 30.0209 11.3442 30.419 11.3442C32.1108 11.3442 33.7032 11.9641 34.8974 13.2038C36.3903 14.6502 37.0869 16.7164 36.6888 18.7826C38.3807 19.919 39.4754 21.8819 39.4754 23.9482C39.4754 26.0144 38.4802 27.9773 36.6888 29.1137C37.0869 31.18 36.3903 33.2462 34.8974 34.6925C33.7032 35.9323 32.1108 36.5521 30.419 36.5521C30.0209 36.5521 29.6228 36.5521 29.2247 36.4488C28.13 38.3084 26.1395 39.3415 24.0496 39.3415ZM18.8745 36.3455C20.0687 38.1018 21.9596 39.1349 24.0496 39.1349C26.1395 39.1349 28.0304 38.1018 29.2247 36.4488V36.3455H29.3242C29.7223 36.4488 30.1204 36.4488 30.5185 36.4488C32.2103 36.4488 33.7032 35.829 34.8974 34.6925C36.3903 33.2462 36.9874 31.18 36.5893 29.217V29.1137H36.6888C38.3807 27.9773 39.3759 26.1177 39.3759 24.0515C39.3759 21.9853 38.3807 20.1256 36.6888 18.9892H36.5893V18.8859C36.9874 16.923 36.3903 14.8568 34.8974 13.4104C33.7032 12.274 32.2103 11.6541 30.5185 11.6541C30.1204 11.6541 29.7223 11.6541 29.3242 11.7574H29.2247V11.6541C28.0304 10.0011 26.04 8.96804 24.0496 8.96804C21.9596 8.96804 20.0687 10.0011 18.8745 11.6541V11.7574H18.7749C18.3769 11.6541 17.9788 11.6541 17.5807 11.6541C15.8888 11.6541 14.396 12.274 13.2017 13.4104C11.7089 14.8568 11.1118 16.923 11.5099 18.8859V18.9892H11.4104C9.71849 20.1256 8.72327 21.9853 8.72327 24.0515C8.72327 26.1177 9.71849 27.9773 11.4104 29.1137H11.5099V29.217C11.1118 31.18 11.7089 33.2462 13.2017 34.6925C14.396 35.829 15.8888 36.4488 17.5807 36.4488C17.9788 36.4488 18.3769 36.4488 18.8745 36.3455Z" fill="white"/>
<path d="M24.0495 38.1021C22.0591 38.1021 20.2677 36.9656 19.372 35.2093C18.7749 35.416 18.1778 35.5193 17.5806 35.5193C16.1873 35.5193 14.8936 35.0027 13.8983 34.0729C12.505 32.6266 12.0074 30.5603 12.7041 28.7007C10.9127 27.8742 9.71844 26.0146 9.71844 24.0517C9.71844 22.0888 10.9127 20.2292 12.7041 19.4027C12.107 17.5431 12.505 15.4769 13.9979 14.1339C14.9931 13.2041 16.2869 12.6875 17.6802 12.6875C18.2773 12.6875 18.8744 12.7908 19.4716 12.9974C20.1682 11.1378 22.0591 10.0014 24.0495 10.0014C26.04 10.0014 27.8314 11.1378 28.7271 12.8941C29.3242 12.6875 29.9213 12.5842 30.5184 12.5842C31.9117 12.5842 33.2055 13.1007 34.2007 14.0305C35.594 15.4769 36.0916 17.5431 35.395 19.4027C37.1864 20.2292 38.3806 21.9855 38.3806 24.0517C38.3806 26.118 37.1864 27.8742 35.395 28.7007C36.0916 30.5603 35.594 32.6266 34.2007 34.0729C33.2055 35.0027 31.9117 35.5193 30.5184 35.5193C29.9213 35.5193 29.3242 35.416 28.7271 35.2093C27.8314 36.9656 26.04 38.1021 24.0495 38.1021ZM19.4716 34.8994C20.2677 36.759 22.0591 37.8954 24.0495 37.8954C26.04 37.8954 27.7318 36.759 28.528 35.0027V34.8994H28.6275C29.2247 35.106 29.8218 35.2093 30.4189 35.2093C31.7127 35.2093 33.0065 34.6928 33.9022 33.763C35.2955 32.4199 35.6936 30.3537 34.9969 28.5974V28.4941H35.0964C36.8878 27.6676 37.9826 26.0146 37.9826 24.0517C37.9826 22.0888 36.7883 20.4358 35.0964 19.6093H34.9969V19.506C35.6936 17.7497 35.2955 15.6835 33.9022 14.3405C33.0065 13.4107 31.7127 12.8941 30.4189 12.8941C29.8218 12.8941 29.2247 12.9974 28.6275 13.2041H28.528V13.1007C27.7318 11.3444 25.9405 10.208 24.0495 10.208C22.0591 10.208 20.3672 11.3444 19.5711 13.1007V13.2041H19.4716C18.8744 12.9974 18.2773 12.8941 17.6802 12.8941C16.3864 12.8941 15.0926 13.4107 14.1969 14.3405C12.8036 15.6835 12.4055 17.7497 13.1022 19.506V19.6093H13.0027C11.2113 20.4358 10.1165 22.0888 10.1165 24.0517C10.1165 26.0146 11.3108 27.6676 13.0027 28.4941H13.1022V28.5974C12.4055 30.3537 12.8036 32.4199 14.1969 33.763C15.0926 34.6928 16.3864 35.2093 17.6802 35.2093C18.1778 35.2093 18.7749 35.106 19.4716 34.8994Z" fill="white"/>
<path d="M23.0547 10.2079L22.8557 8.9682H23.0547L23.2538 10.1046L23.0547 10.2079Z" fill="white"/>
<path d="M24.1491 8.86475H23.95V10.1045H24.1491V8.86475Z" fill="white"/>
<path d="M24.9454 10.2079L24.7463 10.1046L25.0449 8.9682H25.2439L24.9454 10.2079Z" fill="white"/>
<path d="M25.8416 10.4145L25.6425 10.3112L26.0406 9.1748L26.2397 9.27812L25.8416 10.4145Z" fill="white"/>
<path d="M27.0572 9.63632L26.4381 10.6964L26.6083 10.8035L27.2274 9.74343L27.0572 9.63632Z" fill="white"/>
<path d="M27.3339 11.3444L27.1349 11.1378L27.931 10.208L28.1301 10.4146L27.3339 11.3444Z" fill="white"/>
<path d="M27.9313 11.9642L27.8318 11.7576L28.7275 10.9311L28.9265 11.1377L27.9313 11.9642Z" fill="white"/>
<path d="M21.9358 9.18659L21.7499 9.26044L22.1767 10.4182L22.3626 10.3444L21.9358 9.18659Z" fill="white"/>
<path d="M21.3627 10.8278L20.7656 9.69138L20.9646 9.58807L21.5617 10.7245L21.3627 10.8278Z" fill="white"/>
<path d="M20.6661 11.3443L19.8699 10.4145L20.0689 10.2079L20.8651 11.1377L20.6661 11.3443Z" fill="white"/>
<path d="M19.2526 10.9888L19.1283 11.1502L20.0613 11.9242L20.1855 11.7628L19.2526 10.9888Z" fill="white"/>
<path d="M13.4008 14.9603L12.4055 14.2371L12.5051 14.0305L13.5003 14.7536L13.4008 14.9603Z" fill="white"/>
<path d="M13.9982 14.237L13.1025 13.4105L13.202 13.2039L14.0977 14.1337L13.9982 14.237Z" fill="white"/>
<path d="M14.0289 12.5735L13.8687 12.6962L14.5777 13.6938L14.7378 13.5711L14.0289 12.5735Z" fill="white"/>
<path d="M15.3915 13.2038L14.7943 12.0674L14.9934 11.9641L15.5905 13.1005L15.3915 13.2038Z" fill="white"/>
<path d="M16.1872 12.8939L15.8886 11.7575L16.0877 11.6542L16.3862 12.8939H16.1872Z" fill="white"/>
<path d="M17.0833 12.7907L16.9838 11.5509L17.1829 11.4476L17.2824 12.6874L17.0833 12.7907Z" fill="white"/>
<path d="M17.9971 11.4971L17.8891 12.7318L18.0873 12.7504L18.1953 11.5158L17.9971 11.4971Z" fill="white"/>
<path d="M13.0028 15.6834L11.8085 15.1668L11.908 14.9602L13.1023 15.4768L13.0028 15.6834Z" fill="white"/>
<path d="M11.5272 15.9987L11.4781 16.1989L12.732 16.5298L12.7811 16.3296L11.5272 15.9987Z" fill="white"/>
<path d="M12.6049 17.3362L11.3111 17.2329V17.0263L12.6049 17.1296V17.3362Z" fill="white"/>
<path d="M12.5935 18.0054L11.304 18.115L11.3202 18.3209L12.6097 18.2113L12.5935 18.0054Z" fill="white"/>
<path d="M8.72354 25.188V24.9813L9.9178 24.7747L10.0173 24.9813L8.72354 25.188Z" fill="white"/>
<path d="M9.91753 23.9485H8.62375V24.1551H9.91753V23.9485Z" fill="white"/>
<path d="M9.9178 23.3284L8.72354 23.0184V22.8118L10.0173 23.0184L9.9178 23.3284Z" fill="white"/>
<path d="M9.05605 21.8093L8.99078 22.0045L10.213 22.4449L10.2783 22.2497L9.05605 21.8093Z" fill="white"/>
<path d="M9.57117 20.8761L9.47525 21.0572L10.5217 21.6546L10.6176 21.4736L9.57117 20.8761Z" fill="white"/>
<path d="M10.203 19.9571L10.0788 20.1185L11.0117 20.8924L11.136 20.731L10.203 19.9571Z" fill="white"/>
<path d="M11.6097 20.3325L10.8136 19.2994L11.0126 19.196L11.8088 20.1258L11.6097 20.3325Z" fill="white"/>
<path d="M10.2341 25.5808L9.01019 26.0164L9.07474 26.2118L10.2987 25.7763L10.2341 25.5808Z" fill="white"/>
<path d="M9.51938 27.2543L9.41986 27.0477L10.5146 26.4278L10.6141 26.6344L9.51938 27.2543Z" fill="white"/>
<path d="M11.0341 27.184L10.101 27.9578L10.2252 28.1192L11.1583 27.3455L11.0341 27.184Z" fill="white"/>
<path d="M11.5999 27.7557L10.8101 28.6857L10.9594 28.8223L11.7492 27.8924L11.5999 27.7557Z" fill="white"/>
<path d="M14.0976 35.5192L13.8985 35.4159L14.5952 34.3828L14.7942 34.4861L14.0976 35.5192Z" fill="white"/>
<path d="M13.202 34.8993L13.1025 34.6926L13.9982 33.8661L14.0977 33.9695L13.202 34.8993Z" fill="white"/>
<path d="M13.3367 33.1626L12.3438 33.8515L12.4544 34.0233L13.4473 33.3344L13.3367 33.1626Z" fill="white"/>
<path d="M11.908 33.1432L11.8085 32.9366L13.0028 32.42L13.1023 32.6267L11.908 33.1432Z" fill="white"/>
<path d="M12.7528 31.5274L11.4983 31.856L11.547 32.0563L12.8015 31.7278L12.7528 31.5274Z" fill="white"/>
<path d="M11.3111 31.0766V30.7667L12.6049 30.6634V30.9733L11.3111 31.0766Z" fill="white"/>
<path d="M12.6049 30.0436L11.3111 29.9403V29.7337L12.6049 29.837V30.0436Z" fill="white"/>
<path d="M15.3385 34.844L14.8152 35.9584L14.9941 36.0489L15.5174 34.9345L15.3385 34.844Z" fill="white"/>
<path d="M16.1244 35.1872L15.8061 36.3821L15.998 36.4371L16.3162 35.2423L16.1244 35.1872Z" fill="white"/>
<path d="M17.0336 35.3493L16.9256 36.584L17.1238 36.6027L17.2318 35.368L17.0336 35.3493Z" fill="white"/>
<path d="M18.1216 35.307L17.9233 35.3257L18.0317 36.5604L18.23 36.5416L18.1216 35.307Z" fill="white"/>
<path d="M25.0449 39.1349L24.7463 37.8952H24.9454L25.2439 39.1349H25.0449Z" fill="white"/>
<path d="M24.1491 37.9986H23.95V39.2383H24.1491V37.9986Z" fill="white"/>
<path d="M23.0547 39.1349H22.8557L23.0547 37.8952H23.2538L23.0547 39.1349Z" fill="white"/>
<path d="M21.9596 38.9285L21.7606 38.8252L22.1586 37.6887H22.3577L21.9596 38.9285Z" fill="white"/>
<path d="M21.425 37.3082L20.8132 38.3729L20.9841 38.4788L21.5959 37.4141L21.425 37.3082Z" fill="white"/>
<path d="M20.6747 36.7506L19.8849 37.6805L20.0342 37.8171L20.824 36.8872L20.6747 36.7506Z" fill="white"/>
<path d="M19.2726 37.0687L19.1731 36.9654L20.0688 36.1389L20.2679 36.2422L19.2726 37.0687Z" fill="white"/>
<path d="M26.0406 38.9285L25.6425 37.6887H25.8416L26.2397 38.8252L26.0406 38.9285Z" fill="white"/>
<path d="M27.0352 38.4119L26.4381 37.3788L26.6371 37.2755L27.2343 38.3086L27.0352 38.4119Z" fill="white"/>
<path d="M27.3065 36.7601L27.157 36.8965L27.9452 37.8279L28.0947 37.6915L27.3065 36.7601Z" fill="white"/>
<path d="M28.7275 37.0688L27.8318 36.2423L27.9313 36.139L28.9265 36.9655L28.7275 37.0688Z" fill="white"/>
<path d="M34.6162 33.1154L34.5057 33.2872L35.4988 33.9758L35.6094 33.804L34.6162 33.1154Z" fill="white"/>
<path d="M34.0055 33.8211L33.8683 33.9709L34.7338 34.8252L34.871 34.6754L34.0055 33.8211Z" fill="white"/>
<path d="M33.9022 35.5192L33.2055 34.4861L33.4045 34.3828L34.1012 35.4159L33.9022 35.5192Z" fill="white"/>
<path d="M33.0064 36.0357L32.4093 34.8993L32.6083 34.796L33.2055 35.9324L33.0064 36.0357Z" fill="white"/>
<path d="M31.9117 36.4489L31.6132 35.2092L31.8122 35.1059L32.2103 36.3456L31.9117 36.4489Z" fill="white"/>
<path d="M30.9166 36.5521L30.7175 35.3124H31.0161L31.1156 36.5521H30.9166Z" fill="white"/>
<path d="M29.8642 35.3446L29.7566 36.5792L29.9548 36.5978L30.0624 35.3632L29.8642 35.3446Z" fill="white"/>
<path d="M36.0918 33.1432L34.8975 32.6267L34.997 32.42L36.1913 32.9366L36.0918 33.1432Z" fill="white"/>
<path d="M35.3188 31.5722L35.2694 31.7723L36.5228 32.1054L36.5722 31.9052L35.3188 31.5722Z" fill="white"/>
<path d="M35.4883 30.692L35.4716 30.8979L36.7609 31.01L36.7775 30.8041L35.4883 30.692Z" fill="white"/>
<path d="M35.4945 30.0436L35.395 29.837L36.6888 29.7337V29.9403L35.4945 30.0436Z" fill="white"/>
<path d="M39.3421 22.7987L38.065 23.0133L38.0968 23.2173L39.3739 23.0026L39.3421 22.7987Z" fill="white"/>
<path d="M39.3764 23.9485H38.0826V24.1551H39.3764V23.9485Z" fill="white"/>
<path d="M39.2764 25.188L37.9826 24.9813L38.0821 24.7747L39.2764 24.9813V25.188Z" fill="white"/>
<path d="M38.9781 26.2211L37.7838 25.8079L37.8834 25.6013L39.0776 26.0145L38.9781 26.2211Z" fill="white"/>
<path d="M38.4803 27.2542L37.3856 26.6344L37.4851 26.4277L38.5798 27.0476L38.4803 27.2542Z" fill="white"/>
<path d="M36.9422 27.1525L36.818 27.314L37.7513 28.0874L37.8755 27.926L36.9422 27.1525Z" fill="white"/>
<path d="M36.3555 27.7909L36.2063 27.9276L36.9964 28.8572L37.1456 28.7205L36.3555 27.7909Z" fill="white"/>
<path d="M39.0007 21.7707L37.775 22.2006L37.8387 22.3963L39.0645 21.9664L39.0007 21.7707Z" fill="white"/>
<path d="M38.5558 20.82L37.4253 21.4731L37.5221 21.6537L38.6526 21.0006L38.5558 20.82Z" fill="white"/>
<path d="M36.9878 20.9522L36.8883 20.7456L37.8835 19.9191L37.983 20.1258L36.9878 20.9522Z" fill="white"/>
<path d="M36.9968 19.2205L36.2073 20.1507L36.3566 20.2873L37.1462 19.3571L36.9968 19.2205Z" fill="white"/>
<path d="M33.4045 13.7206L33.2055 13.5139L33.9022 12.4808L34.1012 12.6875L33.4045 13.7206Z" fill="white"/>
<path d="M34.1016 14.237L33.9025 14.1337L34.7982 13.2039L34.9973 13.4105L34.1016 14.237Z" fill="white"/>
<path d="M35.43 14.0591L34.4371 14.748L34.5477 14.9198L35.5406 14.2309L35.43 14.0591Z" fill="white"/>
<path d="M34.997 15.6834L34.8975 15.4768L36.0918 14.9602L36.1913 15.1668L34.997 15.6834Z" fill="white"/>
<path d="M36.5327 15.9258L35.2789 16.257L35.328 16.4572L36.5817 16.126L36.5327 15.9258Z" fill="white"/>
<path d="M35.4945 17.3362L35.395 17.1296L36.6888 17.0263V17.2329L35.4945 17.3362Z" fill="white"/>
<path d="M36.6888 18.3695L35.395 18.2662L35.4945 18.0596L36.6888 18.1629V18.3695Z" fill="white"/>
<path d="M32.9609 12.0148L32.4312 13.126L32.6096 13.2176L33.1393 12.1064L32.9609 12.0148Z" fill="white"/>
<path d="M31.8122 12.8939H31.6132L31.9117 11.6542L32.1108 11.7575L31.8122 12.8939Z" fill="white"/>
<path d="M31.0161 12.7907L30.7175 12.6874L30.9166 11.4476L31.1156 11.5509L31.0161 12.7907Z" fill="white"/>
<path d="M29.9214 12.7908L29.7224 11.5511L30.0209 11.4478L30.1204 12.6875L29.9214 12.7908Z" fill="white"/>
<path d="M18.8747 11.5847L18.6921 11.667L19.2864 13.0887L19.469 13.0064L18.8747 11.5847Z" fill="white"/>
<path d="M28.7273 13.1007L28.5282 12.9974L29.1254 11.551L29.3244 11.6543L28.7273 13.1007Z" fill="white"/>
<path d="M36.6013 18.7854L35.12 19.3918L35.193 19.5841L36.6744 18.9776L36.6013 18.7854Z" fill="white"/>
<path d="M12.9034 19.6091L11.4106 18.9892V18.7826L12.9034 19.4025V19.6091Z" fill="white"/>
<path d="M12.9138 28.4914L11.4307 29.093L11.5031 29.2854L12.9862 28.6839L12.9138 28.4914Z" fill="white"/>
<path d="M18.8746 36.5524L18.6756 36.449L19.2727 35.0027L19.4718 35.106L18.8746 36.5524Z" fill="white"/>
<path d="M29.1254 36.5524L28.5282 35.106L28.7273 35.0027L29.3244 36.449L29.1254 36.5524Z" fill="white"/>
<path d="M35.1886 28.4716L35.1157 28.6638L36.5973 29.2695L36.6703 29.0772L35.1886 28.4716Z" fill="white"/>
<path fill-rule="evenodd" clip-rule="evenodd" d="M16.6853 28.9074C17.8796 29.0107 19.0739 28.7008 19.5715 26.9445C20.9648 28.4941 22.4576 28.4941 23.9504 26.6345C24.7466 27.8743 26.1399 28.9074 28.2298 27.3577C28.7275 28.5974 29.2251 29.2173 30.9169 29.114L30.0212 30.6637C26.1399 29.5272 22.0595 29.114 17.4815 30.6637L16.6853 28.9074ZM22.4576 21.2623C22.2586 19.6094 25.3437 19.506 25.3437 21.2623C24.8461 21.2623 23.9504 21.0557 24.0499 21.8822H23.7514C23.7514 21.0557 23.2538 21.2623 22.4576 21.2623ZM25.9409 22.0888C25.5428 21.7789 24.9456 21.469 24.3485 22.1921V25.2915C25.1447 27.0478 27.1351 27.461 28.6279 25.2915C28.827 28.1842 30.6184 28.8041 33.1064 27.2544L30.4193 31.6968C25.0452 30.3537 22.4576 30.2504 16.9839 31.6968L14.4959 27.1511C16.9839 28.2875 18.2777 28.0809 19.2729 25.1882C20.2681 27.0478 22.4576 27.6676 23.3533 25.1882V22.2955C23.0547 21.7789 22.5571 21.6756 21.8605 22.1921C21.2633 18.0597 26.6375 18.3696 25.9409 22.0888ZM19.7705 28.0809C19.9696 28.1842 20.4672 28.5974 20.1686 29.114C20.3676 28.7008 20.5667 28.5974 21.1638 28.5974C21.0643 29.9405 19.0739 30.0438 18.7753 29.114C18.9743 28.9074 19.472 28.8041 19.7705 29.2173C19.3724 28.9074 19.671 28.2875 19.7705 28.0809ZM23.8509 27.7709C24.0499 27.8743 24.448 28.3908 24.0499 28.9074C24.3485 28.4941 24.5476 28.4941 25.1447 28.5974C24.7466 29.9405 22.7562 29.6306 22.6566 28.5974C22.9552 28.4941 23.3533 28.4941 23.6519 28.9074C23.2538 28.4941 23.6519 27.8743 23.8509 27.7709ZM27.9313 28.1842C28.1303 28.3908 28.3294 28.9074 27.9313 29.3206C28.3294 29.0107 28.5284 29.0107 29.026 29.2173C28.3294 30.457 26.538 29.7339 26.6375 28.7007C26.9361 28.5974 27.3342 28.7007 27.5332 29.2173C27.2346 28.7007 27.7322 28.2875 27.9313 28.1842ZM32.1112 26.6345L32.5093 25.2915L31.4145 24.465H32.8078L33.2059 23.2253L33.604 24.465H34.9973L33.9026 25.2915L34.3007 26.6345L33.2059 25.808L32.1112 26.6345ZM30.8174 21.6756L31.2155 20.3325L30.1208 19.506H31.5141L31.9121 18.2663L32.3102 19.506H33.7035L32.6088 20.3325L33.0069 21.6756L31.9121 20.8491L30.8174 21.6756ZM27.4337 18.163L27.8318 16.82L26.737 15.9935H28.1303L28.5284 14.7537L28.9265 15.9935H30.3198L29.2251 16.82L29.6231 18.163L28.5284 17.3365L27.4337 18.163ZM22.9552 16.7166L23.3533 15.3736L22.2586 14.4438H23.6519L24.0499 13.3074L24.448 14.5471H25.8413L24.7466 15.3736L25.1447 16.7166L24.0499 15.8902L22.9552 16.7166ZM18.4767 17.9564L18.8748 16.6133L17.7801 15.7868H19.1734L19.5715 14.5471L19.9696 15.7868H21.3629L20.2681 16.6133L20.6662 17.9564L19.5715 17.1299L18.4767 17.9564ZM15.093 21.5723L15.4911 20.2292L14.3964 19.4027H15.7897L16.1877 18.163L16.5858 19.4027H17.9791L16.8844 20.2292L17.2825 21.5723L16.1877 20.7458L15.093 21.5723ZM13.6997 26.3246L14.0978 24.9815L13.0031 24.1551H14.3964L14.7944 22.9153L15.1925 24.1551H16.5858L15.4911 24.9815L15.8892 26.3246L14.7944 25.4981L13.6997 26.3246Z" fill="white"/>
</svg>
